<svg xmlns="http://www.w3.org/2000/svg" viewBox="0 0 16 16" width="16" height="16" shape-rendering="crispEdges">
  <rect width="16" height="16" fill="#0a2a44"/>
  
  <rect x="0" y="0" width="2" height="1" fill="#1a3a55"/>
  <rect x="4" y="0" width="3" height="1" fill="#1a3a55"/>
  <rect x="9" y="0" width="2" height="1" fill="#1a3a55"/>
  <rect x="13" y="0" width="2" height="1" fill="#1a3a55"/>
  
  <rect x="1" y="1" width="1" height="1" fill="#2a4a66"/>
  <rect x="5" y="1" width="2" height="1" fill="#2a4a66"/>
  <rect x="10" y="1" width="1" height="1" fill="#2a4a66"/>
  <rect x="14" y="1" width="1" height="1" fill="#2a4a66"/>
  
  <rect x="0" y="2" width="1" height="1" fill="#3a5a77"/>
  <rect x="6" y="2" width="1" height="1" fill="#3a5a77"/>
  <rect x="11" y="2" width="1" height="1" fill="#3a5a77"/>
  
  <rect x="2" y="3" width="4" height="1" fill="#1a3a55"/>
  <rect x="8" y="3" width="3" height="1" fill="#1a3a55"/>
  <rect x="13" y="3" width="2" height="1" fill="#1a3a55"/>
  
  <rect x="3" y="4" width="2" height="1" fill="#2a4a66"/>
  <rect x="9" y="4" width="2" height="1" fill="#2a4a66"/>
  <rect x="14" y="4" width="1" height="1" fill="#2a4a66"/>
  
  <rect x="1" y="5" width="1" height="1" fill="#3a5a77"/>
  <rect x="7" y="5" width="1" height="1" fill="#3a5a77"/>
  
  <rect x="0" y="6" width="3" height="1" fill="#1a3a55"/>
  <rect x="5" y="6" width="4" height="1" fill="#1a3a55"/>
  <rect x="11" y="6" width="3" height="1" fill="#1a3a55"/>
  
  <rect x="1" y="7" width="2" height="1" fill="#2a4a66"/>
  <rect x="6" y="7" width="2" height="1" fill="#2a4a66"/>
  <rect x="12" y="7" width="2" height="1" fill="#2a4a66"/>
  
  <rect x="0" y="8" width="1" height="1" fill="#3a5a77"/>
  <rect x="5" y="8" width="1" height="1" fill="#3a5a77"/>
  <rect x="11" y="8" width="1" height="1" fill="#3a5a77"/>
  
  <rect x="3" y="9" width="3" height="1" fill="#1a3a55"/>
  <rect x="9" y="9" width="4" height="1" fill="#1a3a55"/>
  <rect x="15" y="9" width="1" height="1" fill="#1a3a55"/>
  
  <rect x="4" y="10" width="2" height="1" fill="#2a4a66"/>
  <rect x="10" y="10" width="2" height="1" fill="#2a4a66"/>
  <rect x="0" y="10" width="1" height="1" fill="#2a4a66"/>
  
  <rect x="1" y="11" width="1" height="1" fill="#3a5a77"/>
  <rect x="8" y="11" width="1" height="1" fill="#3a5a77"/>
  <rect x="14" y="11" width="1" height="1" fill="#3a5a77"/>
  
  <rect x="0" y="12" width="4" height="1" fill="#1a3a55"/>
  <rect x="6" y="12" width="3" height="1" fill="#1a3a55"/>
  <rect x="12" y="12" width="3" height="1" fill="#1a3a55"/>
  
  <rect x="1" y="13" width="2" height="1" fill="#2a4a66"/>
  <rect x="7" y="13" width="2" height="1" fill="#2a4a66"/>
  <rect x="13" y="13" width="2" height="1" fill="#2a4a66"/>
  
  <rect x="0" y="14" width="1" height="1" fill="#3a5a77"/>
  <rect x="6" y="14" width="1" height="1" fill="#3a5a77"/>
  <rect x="12" y="14" width="1" height="1" fill="#3a5a77"/>
  
  <rect x="2" y="15" width="3" height="1" fill="#1a3a55"/>
  <rect x="7" y="15" width="2" height="1" fill="#1a3a55"/>
  <rect x="11" y="15" width="2" height="1" fill="#1a3a55"/>
  
  <rect x="5" y="5" width="1" height="1" fill="#4a7799"/>
  <rect x="10" y="11" width="1" height="1" fill="#5a88aa"/>
  
  <rect x="0" y="4" width="1" height="1" fill="#051a2a"/>
  <rect x="7" y="4" width="1" height="1" fill="#051a2a"/>
  <rect x="12" y="4" width="1" height="1" fill="#051a2a"/>
  <rect x="4" y="7" width="1" height="1" fill="#001122"/>
  <rect x="10" y="7" width="1" height="1" fill="#051a2a"/>
  <rect x="2" y="10" width="1" height="1" fill="#001122"/>
  <rect x="8" y="10" width="1" height="1" fill="#051a2a"/>
  <rect x="15" y="10" width="1" height="1" fill="#051a2a"/>
  <rect x="5" y="13" width="1" height="1" fill="#001122"/>
  <rect x="11" y="13" width="1" height="1" fill="#051a2a"/>
  <rect x="3" y="6" width="1" height="1" fill="#001122"/>
  <rect x="14" y="6" width="1" height="1" fill="#001122"/>
  <rect x="6" y="9" width="1" height="1" fill="#051a2a"/>
  <rect x="0" y="15" width="1" height="1" fill="#001122"/>
</svg>
