<svg xmlns="http://www.w3.org/2000/svg" viewBox="0 0 16 16" width="16" height="16" shape-rendering="crispEdges">
  <!-- Base sickly yellow-green -->
  <rect width="16" height="16" fill="#4a4a28"/>
  
  <!-- Diseased grass patches -->
  <rect x="0" y="0" width="2" height="2" fill="#5a5a30"/>
  <rect x="5" y="1" width="3" height="2" fill="#5a5a30"/>
  <rect x="11" y="0" width="2" height="2" fill="#5a5a30"/>
  <rect x="2" y="4" width="2" height="2" fill="#5a5a30"/>
  <rect x="8" y="3" width="2" height="2" fill="#5a5a30"/>
  <rect x="13" y="4" width="2" height="2" fill="#5a5a30"/>
  <rect x="0" y="8" width="2" height="2" fill="#5a5a30"/>
  <rect x="6" y="7" width="3" height="2" fill="#5a5a30"/>
  <rect x="12" y="8" width="2" height="2" fill="#5a5a30"/>
  <rect x="3" y="11" width="2" height="2" fill="#5a5a30"/>
  <rect x="9" y="12" width="2" height="2" fill="#5a5a30"/>
  <rect x="14" y="13" width="2" height="2" fill="#5a5a30"/>
  
  <!-- Darker decay spots -->
  <rect x="1" y="3" width="1" height="1" fill="#3a3a20"/>
  <rect x="4" y="5" width="1" height="1" fill="#3a3a20"/>
  <rect x="7" y="2" width="1" height="1" fill="#3a3a20"/>
  <rect x="10" y="6" width="1" height="1" fill="#3a3a20"/>
  <rect x="14" y="2" width="1" height="1" fill="#3a3a20"/>
  <rect x="2" y="9" width="1" height="1" fill="#3a3a20"/>
  <rect x="8" y="10" width="1" height="1" fill="#3a3a20"/>
  <rect x="13" y="11" width="1" height="1" fill="#3a3a20"/>
  <rect x="5" y="14" width="1" height="1" fill="#3a3a20"/>
  
  <!-- Sick blades - wilting -->
  <rect x="1" y="5" width="1" height="2" fill="#3a3a20"/>
  <rect x="2" y="6" width="1" height="1" fill="#4a4a28"/>
  <rect x="9" y="4" width="1" height="2" fill="#3a3a20"/>
  <rect x="10" y="5" width="1" height="1" fill="#4a4a28"/>
  <rect x="5" y="9" width="1" height="2" fill="#3a3a20"/>
  <rect x="6" y="10" width="1" height="1" fill="#4a4a28"/>
  <rect x="12" y="5" width="1" height="2" fill="#3a3a20"/>
  <rect x="13" y="6" width="1" height="1" fill="#4a4a28"/>
  
  <!-- Brownish dying patches -->
  <rect x="3" y="0" width="1" height="1" fill="#4a4030"/>
  <rect x="9" y="1" width="1" height="1" fill="#4a4030"/>
  <rect x="0" y="6" width="1" height="1" fill="#4a4030"/>
  <rect x="15" y="7" width="1" height="1" fill="#4a4030"/>
  <rect x="4" y="13" width="1" height="1" fill="#4a4030"/>
  <rect x="11" y="14" width="1" height="1" fill="#4a4030"/>
  
  <!-- Slight green hints - not fully dead -->
  <rect x="6" y="4" width="1" height="1" fill="#5a6a40"/>
  <rect x="11" y="9" width="1" height="1" fill="#5a6a40"/>
  <rect x="1" y="13" width="1" height="1" fill="#5a6a40"/>
  <rect x="7" y="15" width="1" height="1" fill="#5a6a40"/>
</svg>
