<svg xmlns="http://www.w3.org/2000/svg" viewBox="0 0 16 16" width="16" height="16" shape-rendering="crispEdges">
  <!-- Dungeon floor base -->
  <rect x="0" y="0" width="16" height="16" fill="#1a1815"/>
  <rect x="1" y="1" width="1" height="1" fill="#252220"/>
  <rect x="13" y="3" width="2" height="1" fill="#252220"/>
  <rect x="2" y="14" width="1" height="1" fill="#252220"/>
  
  <!-- Main blood pool (fresh, bright red) -->
  <rect x="5" y="6" width="6" height="4" fill="#8a2222"/>
  <rect x="6" y="5" width="4" height="1" fill="#8a2222"/>
  <rect x="6" y="10" width="4" height="1" fill="#8a2222"/>
  <rect x="4" y="7" width="1" height="2" fill="#8a2222"/>
  <rect x="11" y="7" width="1" height="2" fill="#8a2222"/>
  
  <!-- Brighter highlights (wet sheen) -->
  <rect x="7" y="7" width="2" height="2" fill="#a82828"/>
  <rect x="6" y="6" width="1" height="1" fill="#9a2424"/>
  
  <!-- Darker edges -->
  <rect x="5" y="9" width="1" height="1" fill="#6a1a1a"/>
  <rect x="10" y="6" width="1" height="1" fill="#6a1a1a"/>
  <rect x="9" y="9" width="1" height="1" fill="#6a1a1a"/>
  <rect x="5" y="6" width="1" height="1" fill="#7a1e1e"/>
  
  <!-- Blood splatters -->
  <rect x="3" y="5" width="1" height="1" fill="#8a2222"/>
  <rect x="2" y="6" width="1" height="1" fill="#6a1a1a"/>
  
  <rect x="12" y="5" width="1" height="1" fill="#7a1e1e"/>
  <rect x="13" y="6" width="1" height="1" fill="#6a1a1a"/>
  
  <rect x="4" y="11" width="1" height="1" fill="#8a2222"/>
  <rect x="3" y="12" width="1" height="1" fill="#6a1a1a"/>
  
  <rect x="11" y="10" width="1" height="1" fill="#7a1e1e"/>
  <rect x="12" y="11" width="1" height="1" fill="#6a1a1a"/>
  
  <!-- Blood drops/trail -->
  <rect x="1" y="8" width="1" height="1" fill="#6a1a1a"/>
  <rect x="14" y="8" width="1" height="1" fill="#7a1e1e"/>
  <rect x="7" y="13" width="1" height="1" fill="#6a1a1a"/>
  <rect x="9" y="12" width="1" height="1" fill="#7a1e1e"/>
  <rect x="6" y="3" width="1" height="1" fill="#6a1a1a"/>
  <rect x="8" y="2" width="1" height="1" fill="#5a1616"/>
</svg>