<svg xmlns="http://www.w3.org/2000/svg" viewBox="0 0 16 16" width="16" height="16" shape-rendering="crispEdges">
  <!-- Base charred black -->
  <rect width="16" height="16" fill="#1a1a1a"/>
  
  <!-- Dark gray ash patches -->
  <rect x="0" y="0" width="3" height="2" fill="#2a2a2a"/>
  <rect x="6" y="1" width="3" height="2" fill="#2a2a2a"/>
  <rect x="12" y="0" width="3" height="2" fill="#2a2a2a"/>
  <rect x="2" y="4" width="3" height="2" fill="#2a2a2a"/>
  <rect x="8" y="5" width="3" height="2" fill="#2a2a2a"/>
  <rect x="13" y="4" width="3" height="2" fill="#2a2a2a"/>
  <rect x="0" y="8" width="3" height="2" fill="#2a2a2a"/>
  <rect x="5" y="9" width="3" height="2" fill="#2a2a2a"/>
  <rect x="11" y="8" width="3" height="2" fill="#2a2a2a"/>
  <rect x="2" y="12" width="3" height="2" fill="#2a2a2a"/>
  <rect x="7" y="13" width="3" height="2" fill="#2a2a2a"/>
  <rect x="12" y="12" width="3" height="2" fill="#2a2a2a"/>
  
  <!-- Lighter gray patches -->
  <rect x="1" y="1" width="1" height="1" fill="#3a3a3a"/>
  <rect x="7" y="2" width="1" height="1" fill="#3a3a3a"/>
  <rect x="13" y="1" width="1" height="1" fill="#3a3a3a"/>
  <rect x="3" y="5" width="1" height="1" fill="#3a3a3a"/>
  <rect x="9" y="6" width="1" height="1" fill="#3a3a3a"/>
  <rect x="14" y="5" width="1" height="1" fill="#3a3a3a"/>
  <rect x="1" y="9" width="1" height="1" fill="#3a3a3a"/>
  <rect x="6" y="10" width="1" height="1" fill="#3a3a3a"/>
  <rect x="12" y="9" width="1" height="1" fill="#3a3a3a"/>
  <rect x="3" y="13" width="1" height="1" fill="#3a3a3a"/>
  <rect x="8" y="14" width="1" height="1" fill="#3a3a3a"/>
  
  <!-- Orange ember hints -->
  <rect x="4" y="3" width="1" height="1" fill="#aa4400"/>
  <rect x="10" y="3" width="1" height="1" fill="#aa4400"/>
  <rect x="0" y="6" width="1" height="1" fill="#aa4400"/>
  <rect x="15" y="7" width="1" height="1" fill="#aa4400"/>
  <rect x="5" y="7" width="1" height="1" fill="#aa4400"/>
  <rect x="10" y="11" width="1" height="1" fill="#aa4400"/>
  <rect x="4" y="15" width="1" height="1" fill="#aa4400"/>
  <rect x="14" y="14" width="1" height="1" fill="#aa4400"/>
  
  <!-- Brighter ember glow -->
  <rect x="2" y="7" width="1" height="1" fill="#cc5500"/>
  <rect x="11" y="4" width="1" height="1" fill="#cc5500"/>
  <rect x="7" y="11" width="1" height="1" fill="#cc5500"/>
  <rect x="0" y="14" width="1" height="1" fill="#cc5500"/>
  
  <!-- Charred burnt grass stubs -->
  <rect x="1" y="3" width="1" height="2" fill="#0a0a0a"/>
  <rect x="6" y="4" width="1" height="2" fill="#0a0a0a"/>
  <rect x="12" y="6" width="1" height="2" fill="#0a0a0a"/>
  <rect x="3" y="10" width="1" height="2" fill="#0a0a0a"/>
  <rect x="9" y="8" width="1" height="2" fill="#0a0a0a"/>
  <rect x="15" y="10" width="1" height="2" fill="#0a0a0a"/>
  
  <!-- Deep black cracks -->
  <rect x="5" y="0" width="1" height="1" fill="#0a0a0a"/>
  <rect x="11" y="2" width="1" height="1" fill="#0a0a0a"/>
  <rect x="0" y="11" width="1" height="1" fill="#0a0a0a"/>
  <rect x="6" y="15" width="1" height="1" fill="#0a0a0a"/>
  <rect x="11" y="15" width="1" height="1" fill="#0a0a0a"/>
</svg>
