<svg xmlns="http://www.w3.org/2000/svg" viewBox="0 0 16 16" width="16" height="16" shape-rendering="crispEdges">
  <!-- Base corrupted purple-black -->
  <rect width="16" height="16" fill="#2a2a38"/>
  
  <!-- Purple corruption patches -->
  <rect x="0" y="1" width="2" height="2" fill="#3a2a48"/>
  <rect x="5" y="0" width="3" height="2" fill="#3a2a48"/>
  <rect x="12" y="1" width="2" height="2" fill="#3a2a48"/>
  <rect x="2" y="5" width="2" height="2" fill="#3a2a48"/>
  <rect x="7" y="4" width="3" height="2" fill="#3a2a48"/>
  <rect x="13" y="5" width="2" height="2" fill="#3a2a48"/>
  <rect x="0" y="9" width="2" height="2" fill="#3a2a48"/>
  <rect x="5" y="8" width="3" height="2" fill="#3a2a48"/>
  <rect x="11" y="9" width="2" height="2" fill="#3a2a48"/>
  <rect x="3" y="12" width="2" height="2" fill="#3a2a48"/>
  <rect x="8" y="13" width="2" height="2" fill="#3a2a48"/>
  <rect x="14" y="12" width="2" height="2" fill="#3a2a48"/>
  
  <!-- Deep corruption - darker purple -->
  <rect x="1" y="2" width="1" height="1" fill="#1a1a28"/>
  <rect x="6" y="1" width="1" height="1" fill="#1a1a28"/>
  <rect x="13" y="2" width="1" height="1" fill="#1a1a28"/>
  <rect x="3" y="6" width="1" height="1" fill="#1a1a28"/>
  <rect x="8" y="5" width="1" height="1" fill="#1a1a28"/>
  <rect x="14" y="6" width="1" height="1" fill="#1a1a28"/>
  <rect x="1" y="10" width="1" height="1" fill="#1a1a28"/>
  <rect x="6" y="9" width="1" height="1" fill="#1a1a28"/>
  <rect x="12" y="10" width="1" height="1" fill="#1a1a28"/>
  <rect x="4" y="13" width="1" height="1" fill="#1a1a28"/>
  <rect x="9" y="14" width="1" height="1" fill="#1a1a28"/>
  
  <!-- Corrupted grass blades -->
  <rect x="4" y="2" width="1" height="2" fill="#1a1a28"/>
  <rect x="5" y="3" width="1" height="1" fill="#2a2a38"/>
  <rect x="10" y="3" width="1" height="2" fill="#1a1a28"/>
  <rect x="11" y="4" width="1" height="1" fill="#2a2a38"/>
  <rect x="2" y="8" width="1" height="2" fill="#1a1a28"/>
  <rect x="3" y="9" width="1" height="1" fill="#2a2a38"/>
  <rect x="9" y="7" width="1" height="2" fill="#1a1a28"/>
  <rect x="10" y="8" width="1" height="1" fill="#2a2a38"/>
  
  <!-- Magical purple glow spots -->
  <rect x="2" y="3" width="1" height="1" fill="#5a3a68"/>
  <rect x="9" y="2" width="1" height="1" fill="#5a3a68"/>
  <rect x="14" y="4" width="1" height="1" fill="#5a3a68"/>
  <rect x="4" y="10" width="1" height="1" fill="#5a3a68"/>
  <rect x="11" y="11" width="1" height="1" fill="#5a3a68"/>
  <rect x="0" y="14" width="1" height="1" fill="#5a3a68"/>
  <rect x="7" y="11" width="1" height="1" fill="#5a3a68"/>
  
  <!-- Black void patches -->
  <rect x="0" y="5" width="1" height="1" fill="#0a0a10"/>
  <rect x="15" y="3" width="1" height="1" fill="#0a0a10"/>
  <rect x="7" y="7" width="1" height="1" fill="#0a0a10"/>
  <rect x="1" y="15" width="1" height="1" fill="#0a0a10"/>
  <rect x="12" y="15" width="1" height="1" fill="#0a0a10"/>
</svg>
