<svg xmlns="http://www.w3.org/2000/svg" viewBox="0 0 16 16" width="16" height="16" shape-rendering="crispEdges">
  <rect width="16" height="16" fill="#2d4a28"/>
  
  <rect x="0" y="0" width="1" height="1" fill="#3d5a38"/>
  <rect x="3" y="0" width="1" height="1" fill="#263f22"/>
  <rect x="6" y="1" width="1" height="1" fill="#3d5a38"/>
  <rect x="10" y="0" width="1" height="1" fill="#263f22"/>
  <rect x="14" y="1" width="1" height="1" fill="#3d5a38"/>
  
  <rect x="1" y="2" width="1" height="1" fill="#263f22"/>
  <rect x="4" y="1" width="1" height="1" fill="#3d5a38"/>
  <rect x="12" y="2" width="1" height="1" fill="#263f22"/>
  <rect x="15" y="0" width="1" height="1" fill="#263f22"/>
  
  <rect x="7" y="11" width="2" height="4" fill="#3a2a1a"/>
  <rect x="6" y="13" width="1" height="2" fill="#2a1a0a"/>
  <rect x="9" y="13" width="1" height="2" fill="#4a3a2a"/>
  <rect x="7" y="14" width="1" height="1" fill="#2a1a0a"/>
  <rect x="8" y="14" width="1" height="1" fill="#4a3a2a"/>
  
  <rect x="7" y="10" width="2" height="1" fill="#3a2a1a"/>
  
  <rect x="5" y="8" width="1" height="1" fill="#3a2a1a"/>
  <rect x="4" y="7" width="1" height="1" fill="#2a1a0a"/>
  <rect x="3" y="6" width="1" height="1" fill="#3a2a1a"/>
  
  <rect x="10" y="8" width="1" height="1" fill="#3a2a1a"/>
  <rect x="11" y="7" width="1" height="1" fill="#2a1a0a"/>
  <rect x="12" y="6" width="1" height="1" fill="#3a2a1a"/>
  
  <rect x="6" y="6" width="1" height="2" fill="#3a2a1a"/>
  <rect x="9" y="6" width="1" height="2" fill="#3a2a1a"/>
  
  <rect x="7" y="4" width="2" height="6" fill="#3a2a1a"/>
  <rect x="7" y="3" width="1" height="1" fill="#2a1a0a"/>
  <rect x="8" y="3" width="1" height="1" fill="#4a3a2a"/>
  
  <rect x="6" y="3" width="1" height="1" fill="#3a2a1a"/>
  <rect x="5" y="2" width="1" height="1" fill="#2a1a0a"/>
  
  <rect x="9" y="3" width="1" height="1" fill="#3a2a1a"/>
  <rect x="10" y="2" width="1" height="1" fill="#2a1a0a"/>
  
  <rect x="7" y="1" width="2" height="2" fill="#3a2a1a"/>
  <rect x="8" y="0" width="1" height="1" fill="#2a1a0a"/>
  
  <rect x="4" y="4" width="1" height="1" fill="#3a2a1a"/>
  <rect x="3" y="3" width="1" height="1" fill="#2a1a0a"/>
  
  <rect x="11" y="4" width="1" height="1" fill="#3a2a1a"/>
  <rect x="12" y="3" width="1" height="1" fill="#2a1a0a"/>
  
  <rect x="0" y="13" width="1" height="1" fill="#263f22"/>
  <rect x="2" y="14" width="1" height="1" fill="#3d5a38"/>
  <rect x="4" y="15" width="1" height="1" fill="#263f22"/>
  <rect x="11" y="15" width="1" height="1" fill="#3d5a38"/>
  <rect x="13" y="14" width="1" height="1" fill="#263f22"/>
  <rect x="15" y="15" width="1" height="1" fill="#3d5a38"/>
  
  <rect x="0" y="5" width="1" height="1" fill="#3d5a38"/>
  <rect x="2" y="8" width="1" height="1" fill="#263f22"/>
  <rect x="13" y="9" width="1" height="1" fill="#3d5a38"/>
  <rect x="15" y="6" width="1" height="1" fill="#263f22"/>
  
  <rect x="1" y="10" width="1" height="1" fill="#1a3318"/>
  <rect x="14" y="11" width="1" height="1" fill="#1a3318"/>
</svg>
