<svg xmlns="http://www.w3.org/2000/svg" viewBox="0 0 16 16" width="16" height="16" shape-rendering="crispEdges">
  <!-- Stone frame -->
  <rect x="0" y="0" width="2" height="16" fill="#2a2830"/>
  <rect x="14" y="0" width="2" height="16" fill="#2a2830"/>
  <rect x="0" y="0" width="16" height="2" fill="#343240"/>
  
  <!-- Frame highlights -->
  <rect x="0" y="0" width="1" height="16" fill="#3a3840"/>
  <rect x="15" y="0" width="1" height="16" fill="#1c1a20"/>
  <rect x="0" y="0" width="16" height="1" fill="#3a3840"/>
  
  <!-- Door base (dark wood) -->
  <rect x="2" y="2" width="12" height="14" fill="#3a2820"/>
  <rect x="3" y="3" width="10" height="12" fill="#2e2018"/>
  
  <!-- Wood grain vertical -->
  <rect x="4" y="3" width="1" height="12" fill="#3a2820"/>
  <rect x="7" y="3" width="1" height="12" fill="#3a2820"/>
  <rect x="11" y="3" width="1" height="12" fill="#3a2820"/>
  
  <!-- Horizontal planks -->
  <rect x="3" y="5" width="10" height="1" fill="#241810"/>
  <rect x="3" y="9" width="10" height="1" fill="#241810"/>
  <rect x="3" y="13" width="10" height="1" fill="#241810"/>
  
  <!-- Iron reinforcement band -->
  <rect x="2" y="6" width="12" height="3" fill="#383838"/>
  <rect x="3" y="7" width="10" height="1" fill="#444444"/>
  
  <!-- Lock mechanism (prominent) -->
  <rect x="6" y="6" width="4" height="3" fill="#555555"/>
  <rect x="7" y="6" width="2" height="3" fill="#666666"/>
  <rect x="7" y="7" width="2" height="1" fill="#333333"/>
  
  <!-- Keyhole -->
  <rect x="7" y="8" width="1" height="1" fill="#111111"/>
</svg>
