<svg xmlns="http://www.w3.org/2000/svg" viewBox="0 0 16 16" width="16" height="16" shape-rendering="crispEdges">
<rect x="0" y="0" width="16" height="16" fill="#4a4a4a"/>
<rect x="0" y="0" width="8" height="8" fill="#3a3a3a"/>
<rect x="8" y="8" width="8" height="8" fill="#3a3a3a"/>
<rect x="1" y="1" width="6" height="6" fill="#555555"/>
<rect x="9" y="1" width="6" height="6" fill="#555555"/>
<rect x="1" y="9" width="6" height="6" fill="#555555"/>
<rect x="9" y="9" width="6" height="6" fill="#555555"/>
<rect x="2" y="2" width="4" height="4" fill="#4a4a4a"/>
<rect x="10" y="2" width="4" height="4" fill="#4a4a4a"/>
<rect x="2" y="10" width="4" height="4" fill="#4a4a4a"/>
<rect x="10" y="10" width="4" height="4" fill="#4a4a4a"/>
<rect x="7" y="0" width="1" height="16" fill="#2a2a2a"/>
<rect x="8" y="0" width="1" height="16" fill="#333333"/>
<rect x="7" y="3" width="1" height="1" fill="#252525"/>
<rect x="7" y="7" width="1" height="2" fill="#222222"/>
<rect x="7" y="12" width="1" height="1" fill="#252525"/>
</svg>