<svg xmlns="http://www.w3.org/2000/svg" viewBox="0 0 16 16" width="16" height="16" shape-rendering="crispEdges">
  <rect width="16" height="16" fill="#2a2622"/>
  
  <rect x="0" y="0" width="16" height="2" fill="#3a3632"/>
  <rect x="0" y="14" width="16" height="2" fill="#1a1614"/>
  
  <rect x="0" y="2" width="8" height="6" fill="#242220"/>
  <rect x="8" y="2" width="8" height="6" fill="#2e2a28"/>
  <rect x="0" y="8" width="8" height="6" fill="#2e2a28"/>
  <rect x="8" y="8" width="8" height="6" fill="#242220"/>
  
  <rect x="0" y="7" width="16" height="1" fill="#181614"/>
  <rect x="7" y="2" width="1" height="5" fill="#181614"/>
  <rect x="7" y="8" width="1" height="6" fill="#181614"/>
  
  <rect x="0" y="8" width="1" height="6" fill="#181614"/>
  <rect x="15" y="2" width="1" height="5" fill="#181614"/>
  
  <rect x="1" y="0" width="1" height="1" fill="#4a4642"/>
  <rect x="9" y="0" width="1" height="1" fill="#4a4642"/>
  
  <rect x="2" y="3" width="1" height="1" fill="#1a1816"/>
  <rect x="4" y="4" width="1" height="1" fill="#1a1816"/>
  <rect x="10" y="4" width="1" height="1" fill="#1a1816"/>
  <rect x="13" y="3" width="1" height="1" fill="#1a1816"/>
  
  <rect x="3" y="9" width="1" height="1" fill="#1a1816"/>
  <rect x="5" y="11" width="1" height="1" fill="#1a1816"/>
  <rect x="11" y="10" width="1" height="1" fill="#1a1816"/>
  <rect x="14" y="12" width="1" height="1" fill="#1a1816"/>
  
  <rect x="1" y="4" width="1" height="1" fill="#343230"/>
  <rect x="5" y="5" width="1" height="1" fill="#343230"/>
  <rect x="11" y="3" width="1" height="1" fill="#343230"/>
  <rect x="2" y="10" width="1" height="1" fill="#343230"/>
  <rect x="12" y="11" width="1" height="1" fill="#343230"/>
</svg>
