<svg xmlns="http://www.w3.org/2000/svg" viewBox="0 0 16 16" width="16" height="16" shape-rendering="crispEdges">
  <!-- Base dungeon floor -->
  <rect width="16" height="16" fill="#1a1815"/>
  
  <!-- Stone frame/archway -->
  <rect x="2" y="6" width="3" height="10" fill="#2a2622"/>
  <rect x="11" y="6" width="3" height="10" fill="#2a2622"/>
  
  <!-- Pillar shadows -->
  <rect x="2" y="6" width="1" height="10" fill="#141210"/>
  <rect x="14" y="6" width="1" height="10" fill="#141210"/>
  
  <!-- Light from above (exit glow) -->
  <rect x="5" y="0" width="6" height="4" fill="#4a4642"/>
  <rect x="6" y="0" width="4" height="3" fill="#6a6662"/>
  <rect x="7" y="0" width="2" height="2" fill="#8a8682"/>
  
  <!-- Light rays spreading down -->
  <rect x="5" y="4" width="6" height="2" fill="#3a3632"/>
  <rect x="6" y="6" width="4" height="2" fill="#2e2a28"/>
  <rect x="7" y="8" width="2" height="2" fill="#242220"/>
  
  <!-- Ascending stairs -->
  <rect x="5" y="10" width="6" height="2" fill="#2e2a28"/>
  <rect x="5" y="10" width="6" height="1" fill="#3a3632"/>
  
  <rect x="5" y="12" width="6" height="2" fill="#262420"/>
  <rect x="5" y="12" width="6" height="1" fill="#2e2a28"/>
  
  <rect x="5" y="14" width="6" height="2" fill="#1e1c18"/>
  <rect x="5" y="14" width="6" height="1" fill="#262420"/>
  
  <!-- Stone wall details -->
  <rect x="3" y="8" width="1" height="1" fill="#3a3632"/>
  <rect x="12" y="9" width="1" height="1" fill="#3a3632"/>
  <rect x="3" y="13" width="1" height="1" fill="#1a1816"/>
  <rect x="12" y="14" width="1" height="1" fill="#1a1816"/>
  
  <!-- Dust motes in light -->
  <rect x="6" y="2" width="1" height="1" fill="#9a9692"/>
  <rect x="8" y="4" width="1" height="1" fill="#7a7672"/>
  <rect x="7" y="6" width="1" height="1" fill="#4a4642"/>
</svg>
