<svg xmlns="http://www.w3.org/2000/svg" viewBox="0 0 16 16" width="16" height="16" shape-rendering="crispEdges">
  <!-- Base dungeon stone -->
  <rect width="16" height="16" fill="#0c0e14"/>
  
  <!-- Stone archway pillars -->
  <rect x="1" y="4" width="4" height="12" fill="#1c1a20"/>
  <rect x="11" y="4" width="4" height="12" fill="#1c1a20"/>
  
  <!-- Pillar shadows -->
  <rect x="1" y="4" width="1" height="12" fill="#0e0c12"/>
  <rect x="14" y="4" width="1" height="12" fill="#0e0c12"/>
  
  <!-- Light from above (golden sunlight) -->
  <rect x="5" y="0" width="6" height="2" fill="#aa8844"/>
  <rect x="6" y="0" width="4" height="1" fill="#ccaa55"/>
  <rect x="7" y="0" width="2" height="1" fill="#eebb66"/>
  
  <!-- Light spreading down -->
  <rect x="5" y="2" width="6" height="2" fill="#886633"/>
  <rect x="6" y="4" width="4" height="2" fill="#664422"/>
  <rect x="7" y="6" width="2" height="2" fill="#443311"/>
  
  <!-- Ascending stairs (lit) -->
  <rect x="5" y="8" width="6" height="2" fill="#242018"/>
  <rect x="5" y="8" width="6" height="1" fill="#554422"/>
  
  <rect x="5" y="10" width="6" height="2" fill="#1e1a14"/>
  <rect x="5" y="10" width="6" height="1" fill="#443311"/>
  
  <rect x="5" y="12" width="6" height="2" fill="#181410"/>
  <rect x="5" y="12" width="6" height="1" fill="#332a11"/>
  
  <rect x="5" y="14" width="6" height="2" fill="#10131a"/>
  <rect x="5" y="14" width="6" height="1" fill="#221a0a"/>
  
  <!-- Dust motes in light beam -->
  <rect x="6" y="1" width="1" height="1" fill="#ddbb77"/>
  <rect x="8" y="3" width="1" height="1" fill="#aa8844"/>
  <rect x="7" y="5" width="1" height="1" fill="#775522"/>
  
  <!-- Wall details -->
  <rect x="2" y="6" width="1" height="1" fill="#242228"/>
  <rect x="13" y="8" width="1" height="1" fill="#242228"/>
</svg>
