<svg xmlns="http://www.w3.org/2000/svg" viewBox="0 0 16 16" width="16" height="16" shape-rendering="crispEdges">
  <!-- Base: deep blue-gray stone (matches dungeon_floor) -->
  <rect width="16" height="16" fill="#0c0e14"/>
  
  <!-- Stone tile pattern -->
  <rect x="0" y="0" width="8" height="8" fill="#10131a"/>
  <rect x="8" y="8" width="8" height="8" fill="#10131a"/>
  
  <!-- Mortar lines -->
  <rect x="0" y="7" width="16" height="1" fill="#06080c"/>
  <rect x="0" y="15" width="16" height="1" fill="#06080c"/>
  <rect x="7" y="0" width="1" height="16" fill="#06080c"/>
  <rect x="15" y="0" width="1" height="16" fill="#06080c"/>
  
  <!-- Major crack (diagonal) -->
  <rect x="3" y="1" width="1" height="1" fill="#040608"/>
  <rect x="4" y="2" width="1" height="1" fill="#040608"/>
  <rect x="4" y="3" width="1" height="1" fill="#040608"/>
  <rect x="5" y="4" width="1" height="1" fill="#040608"/>
  <rect x="5" y="5" width="1" height="1" fill="#040608"/>
  <rect x="6" y="6" width="1" height="1" fill="#040608"/>
  
  <!-- Crack highlights (lighter edge) -->
  <rect x="4" y="1" width="1" height="1" fill="#181c24"/>
  <rect x="5" y="3" width="1" height="1" fill="#181c24"/>
  <rect x="6" y="5" width="1" height="1" fill="#181c24"/>
  
  <!-- Secondary crack -->
  <rect x="10" y="9" width="1" height="1" fill="#040608"/>
  <rect x="11" y="10" width="1" height="1" fill="#040608"/>
  <rect x="11" y="11" width="1" height="1" fill="#040608"/>
  <rect x="12" y="12" width="1" height="1" fill="#040608"/>
  <rect x="13" y="13" width="1" height="1" fill="#040608"/>
  
  <!-- Minor crack -->
  <rect x="1" y="10" width="1" height="1" fill="#040608"/>
  <rect x="2" y="11" width="1" height="1" fill="#040608"/>
  
  <!-- Stone details -->
  <rect x="1" y="1" width="1" height="1" fill="#141820"/>
  <rect x="12" y="3" width="1" height="1" fill="#141820"/>
</svg>
