<svg xmlns="http://www.w3.org/2000/svg" viewBox="0 0 16 16" width="16" height="16" shape-rendering="crispEdges">
  <!-- Base: deep blue-gray stone (matches dungeon_floor) -->
  <rect width="16" height="16" fill="#0c0e14"/>
  
  <!-- Stone tile pattern -->
  <rect x="0" y="0" width="8" height="8" fill="#10131a"/>
  <rect x="8" y="8" width="8" height="8" fill="#10131a"/>
  
  <!-- Mortar lines -->
  <rect x="0" y="7" width="16" height="1" fill="#06080c"/>
  <rect x="0" y="15" width="16" height="1" fill="#06080c"/>
  <rect x="7" y="0" width="1" height="16" fill="#06080c"/>
  <rect x="15" y="0" width="1" height="16" fill="#06080c"/>
  
  <!-- Dust accumulation (gray-brown) -->
  <rect x="2" y="2" width="3" height="2" fill="#1a1816"/>
  <rect x="3" y="4" width="1" height="1" fill="#1a1816"/>
  
  <rect x="10" y="10" width="4" height="2" fill="#1a1816"/>
  <rect x="12" y="12" width="1" height="1" fill="#1a1816"/>
  
  <rect x="1" y="12" width="2" height="1" fill="#1a1816"/>
  
  <!-- Dust particles (scattered) -->
  <rect x="1" y="1" width="1" height="1" fill="#201c1a"/>
  <rect x="5" y="3" width="1" height="1" fill="#201c1a"/>
  <rect x="4" y="5" width="1" height="1" fill="#201c1a"/>
  <rect x="9" y="2" width="1" height="1" fill="#201c1a"/>
  <rect x="12" y="4" width="1" height="1" fill="#201c1a"/>
  <rect x="14" y="1" width="1" height="1" fill="#201c1a"/>
  
  <rect x="2" y="9" width="1" height="1" fill="#201c1a"/>
  <rect x="5" y="11" width="1" height="1" fill="#201c1a"/>
  <rect x="8" y="13" width="1" height="1" fill="#201c1a"/>
  
  <!-- Cobweb hint -->
  <rect x="0" y="0" width="1" height="1" fill="#24201e"/>
  <rect x="1" y="0" width="1" height="1" fill="#1c1a18"/>
</svg>
