<svg xmlns="http://www.w3.org/2000/svg" viewBox="0 0 16 16" width="16" height="16" shape-rendering="crispEdges">
  <rect width="16" height="16" fill="#2a2822"/>
  
  <rect x="0" y="0" width="8" height="8" fill="#302e28"/>
  <rect x="8" y="8" width="8" height="8" fill="#302e28"/>
  
  <rect x="8" y="0" width="8" height="8" fill="#282622"/>
  <rect x="0" y="8" width="8" height="8" fill="#282622"/>
  
  <rect x="0" y="7" width="8" height="1" fill="#1a1815"/>
  <rect x="7" y="0" width="1" height="7" fill="#1a1815"/>
  <rect x="8" y="15" width="8" height="1" fill="#1a1815"/>
  <rect x="15" y="8" width="1" height="7" fill="#1a1815"/>
  
  <rect x="1" y="0" width="1" height="1" fill="#383630"/>
  <rect x="3" y="1" width="1" height="1" fill="#383630"/>
  <rect x="5" y="3" width="1" height="1" fill="#383630"/>
  <rect x="2" y="4" width="1" height="1" fill="#383630"/>
  <rect x="4" y="5" width="1" height="1" fill="#383630"/>
  <rect x="1" y="6" width="1" height="1" fill="#383630"/>
  
  <rect x="9" y="8" width="1" height="1" fill="#383630"/>
  <rect x="11" y="9" width="1" height="1" fill="#383630"/>
  <rect x="13" y="11" width="1" height="1" fill="#383630"/>
  <rect x="10" y="12" width="1" height="1" fill="#383630"/>
  <rect x="12" y="13" width="1" height="1" fill="#383630"/>
  <rect x="9" y="14" width="1" height="1" fill="#383630"/>
  
  <rect x="4" y="2" width="1" height="1" fill="#201e1a"/>
  <rect x="2" y="5" width="1" height="1" fill="#201e1a"/>
  <rect x="6" y="4" width="1" height="1" fill="#201e1a"/>
  
  <rect x="12" y="10" width="1" height="1" fill="#201e1a"/>
  <rect x="10" y="13" width="1" height="1" fill="#201e1a"/>
  <rect x="14" y="12" width="1" height="1" fill="#201e1a"/>
  
  <rect x="9" y="1" width="1" height="1" fill="#323028"/>
  <rect x="11" y="2" width="1" height="1" fill="#323028"/>
  <rect x="13" y="4" width="1" height="1" fill="#323028"/>
  <rect x="10" y="5" width="1" height="1" fill="#323028"/>
  <rect x="12" y="6" width="1" height="1" fill="#323028"/>
  
  <rect x="1" y="9" width="1" height="1" fill="#323028"/>
  <rect x="3" y="10" width="1" height="1" fill="#323028"/>
  <rect x="5" y="12" width="1" height="1" fill="#323028"/>
  <rect x="2" y="13" width="1" height="1" fill="#323028"/>
  <rect x="4" y="14" width="1" height="1" fill="#323028"/>
  
  <rect x="10" y="3" width="1" height="1" fill="#201e1a"/>
  <rect x="14" y="5" width="1" height="1" fill="#201e1a"/>
  <rect x="2" y="11" width="1" height="1" fill="#201e1a"/>
  <rect x="6" y="13" width="1" height="1" fill="#201e1a"/>
</svg>
