<svg xmlns="http://www.w3.org/2000/svg" viewBox="0 0 16 16" width="16" height="16" shape-rendering="crispEdges">
  <rect width="16" height="16" fill="#88aacc"/>
  
  <rect x="0" y="0" width="2" height="1" fill="#99bbcc"/>
  <rect x="5" y="0" width="3" height="1" fill="#aaccdd"/>
  <rect x="11" y="0" width="2" height="1" fill="#99bbcc"/>
  
  <rect x="2" y="1" width="1" height="1" fill="#aaccdd"/>
  <rect x="7" y="1" width="1" height="1" fill="#ddeeff"/>
  <rect x="13" y="1" width="1" height="1" fill="#aaccdd"/>
  
  <rect x="0" y="2" width="1" height="1" fill="#ddeeff"/>
  <rect x="4" y="2" width="2" height="1" fill="#99bbcc"/>
  <rect x="10" y="2" width="1" height="1" fill="#aaccdd"/>
  <rect x="15" y="2" width="1" height="1" fill="#99bbcc"/>
  
  <rect x="3" y="3" width="1" height="1" fill="#667788"/>
  <rect x="4" y="4" width="1" height="1" fill="#556677"/>
  <rect x="5" y="5" width="1" height="1" fill="#667788"/>
  
  <rect x="1" y="3" width="2" height="1" fill="#aaccdd"/>
  <rect x="6" y="3" width="1" height="1" fill="#ddeeff"/>
  <rect x="9" y="3" width="2" height="1" fill="#99bbcc"/>
  <rect x="13" y="3" width="2" height="1" fill="#aaccdd"/>
  
  <rect x="0" y="4" width="1" height="1" fill="#99bbcc"/>
  <rect x="8" y="4" width="1" height="1" fill="#aaccdd"/>
  <rect x="12" y="4" width="1" height="1" fill="#ddeeff"/>
  
  <rect x="2" y="5" width="2" height="1" fill="#99bbcc"/>
  <rect x="7" y="5" width="2" height="1" fill="#99bbcc"/>
  <rect x="11" y="5" width="1" height="1" fill="#aaccdd"/>
  <rect x="14" y="5" width="1" height="1" fill="#99bbcc"/>
  
  <rect x="10" y="6" width="1" height="1" fill="#667788"/>
  <rect x="11" y="7" width="1" height="1" fill="#556677"/>
  <rect x="12" y="8" width="1" height="1" fill="#667788"/>
  <rect x="13" y="8" width="1" height="1" fill="#556677"/>
  
  <rect x="0" y="6" width="1" height="1" fill="#ddeeff"/>
  <rect x="4" y="6" width="3" height="1" fill="#aaccdd"/>
  <rect x="9" y="6" width="1" height="1" fill="#99bbcc"/>
  <rect x="13" y="6" width="2" height="1" fill="#aaccdd"/>
  
  <rect x="1" y="7" width="1" height="1" fill="#99bbcc"/>
  <rect x="5" y="7" width="1" height="1" fill="#ddeeff"/>
  <rect x="8" y="7" width="2" height="1" fill="#aaccdd"/>
  <rect x="15" y="7" width="1" height="1" fill="#99bbcc"/>
  
  <rect x="0" y="8" width="2" height="1" fill="#aaccdd"/>
  <rect x="4" y="8" width="1" height="1" fill="#99bbcc"/>
  <rect x="7" y="8" width="1" height="1" fill="#99bbcc"/>
  <rect x="10" y="8" width="1" height="1" fill="#ddeeff"/>
  
  <rect x="2" y="9" width="1" height="1" fill="#667788"/>
  <rect x="3" y="10" width="1" height="1" fill="#556677"/>
  
  <rect x="1" y="9" width="1" height="1" fill="#ddeeff"/>
  <rect x="5" y="9" width="2" height="1" fill="#aaccdd"/>
  <rect x="9" y="9" width="1" height="1" fill="#99bbcc"/>
  <rect x="12" y="9" width="2" height="1" fill="#aaccdd"/>
  
  <rect x="0" y="10" width="1" height="1" fill="#99bbcc"/>
  <rect x="6" y="10" width="1" height="1" fill="#ddeeff"/>
  <rect x="10" y="10" width="2" height="1" fill="#aaccdd"/>
  <rect x="15" y="10" width="1" height="1" fill="#99bbcc"/>
  
  <rect x="2" y="11" width="3" height="1" fill="#99bbcc"/>
  <rect x="8" y="11" width="2" height="1" fill="#99bbcc"/>
  <rect x="13" y="11" width="1" height="1" fill="#ddeeff"/>
  
  <rect x="0" y="12" width="1" height="1" fill="#aaccdd"/>
  <rect x="5" y="12" width="1" height="1" fill="#aaccdd"/>
  <rect x="11" y="12" width="2" height="1" fill="#aaccdd"/>
  
  <rect x="14" y="12" width="1" height="1" fill="#667788"/>
  <rect x="15" y="13" width="1" height="1" fill="#556677"/>
  
  <rect x="1" y="13" width="2" height="1" fill="#99bbcc"/>
  <rect x="6" y="13" width="3" height="1" fill="#ddeeff"/>
  <rect x="12" y="13" width="1" height="1" fill="#99bbcc"/>
  
  <rect x="0" y="14" width="1" height="1" fill="#ddeeff"/>
  <rect x="4" y="14" width="2" height="1" fill="#99bbcc"/>
  <rect x="9" y="14" width="1" height="1" fill="#aaccdd"/>
  <rect x="13" y="14" width="2" height="1" fill="#aaccdd"/>
  
  <rect x="2" y="15" width="1" height="1" fill="#aaccdd"/>
  <rect x="7" y="15" width="2" height="1" fill="#99bbcc"/>
  <rect x="11" y="15" width="1" height="1" fill="#ddeeff"/>
  <rect x="15" y="15" width="1" height="1" fill="#99bbcc"/>
</svg>
