<svg xmlns="http://www.w3.org/2000/svg" viewBox="0 0 16 16" width="16" height="16" shape-rendering="crispEdges">
  <!-- Dungeon floor base -->
  <rect x="0" y="0" width="16" height="16" fill="#1a1815"/>
  <rect x="3" y="1" width="1" height="1" fill="#252220"/>
  <rect x="11" y="3" width="2" height="1" fill="#252220"/>
  <rect x="1" y="14" width="1" height="1" fill="#252220"/>
  
  <!-- Main lichen patch (center) -->
  <rect x="5" y="5" width="5" height="4" fill="#3a4a38"/>
  <rect x="6" y="4" width="3" height="1" fill="#3a4a38"/>
  <rect x="6" y="9" width="3" height="1" fill="#2a3a28"/>
  <rect x="4" y="6" width="1" height="2" fill="#2a3a28"/>
  <rect x="10" y="6" width="1" height="2" fill="#3a4a38"/>
  
  <!-- Lighter lichen growth -->
  <rect x="6" y="6" width="2" height="2" fill="#4a5a48"/>
  <rect x="7" y="5" width="1" height="1" fill="#4a5a48"/>
  
  <!-- Darker patches -->
  <rect x="8" y="7" width="1" height="1" fill="#2a3a28"/>
  <rect x="5" y="5" width="1" height="1" fill="#2a3a28"/>
  <rect x="9" y="8" width="1" height="1" fill="#253025"/>
  
  <!-- Spreading lichen patches -->
  <rect x="2" y="6" width="2" height="2" fill="#2a3a28"/>
  <rect x="2" y="6" width="1" height="1" fill="#3a4a38"/>
  <rect x="3" y="7" width="1" height="1" fill="#253025"/>
  
  <rect x="11" y="7" width="2" height="2" fill="#3a4a38"/>
  <rect x="12" y="7" width="1" height="1" fill="#4a5a48"/>
  <rect x="11" y="8" width="1" height="1" fill="#2a3a28"/>
  
  <rect x="4" y="10" width="3" height="2" fill="#2a3a28"/>
  <rect x="5" y="10" width="1" height="1" fill="#3a4a38"/>
  <rect x="6" y="11" width="1" height="1" fill="#253025"/>
  
  <rect x="9" y="10" width="2" height="2" fill="#3a4a38"/>
  <rect x="10" y="10" width="1" height="1" fill="#4a5a48"/>
  
  <!-- Small scattered growth -->
  <rect x="1" y="4" width="1" height="1" fill="#2a3a28"/>
  <rect x="13" y="5" width="1" height="1" fill="#3a4a38"/>
  <rect x="3" y="3" width="1" height="1" fill="#253025"/>
  <rect x="12" y="3" width="1" height="1" fill="#2a3a28"/>
  <rect x="2" y="11" width="1" height="1" fill="#253025"/>
  <rect x="13" y="11" width="1" height="1" fill="#2a3a28"/>
  <rect x="8" y="13" width="1" height="1" fill="#3a4a38"/>
  <rect x="5" y="2" width="1" height="1" fill="#2a3a28"/>
  
  <!-- Gray lichen spots -->
  <rect x="7" y="7" width="1" height="1" fill="#4a4a48"/>
  <rect x="3" y="8" width="1" height="1" fill="#3a3a38"/>
  <rect x="11" y="9" width="1" height="1" fill="#3a3a38"/>
</svg>