<svg xmlns="http://www.w3.org/2000/svg" viewBox="0 0 16 16" width="16" height="16" shape-rendering="crispEdges">
<rect x="0" y="0" width="16" height="16" fill="#4a4a4a"/>
<rect x="1" y="1" width="14" height="14" fill="#3a3a3a"/>
<rect x="2" y="2" width="12" height="12" fill="#4a4a4a"/>
<rect x="3" y="3" width="10" height="10" fill="#5a5a5a"/>
<rect x="4" y="4" width="8" height="8" fill="#656565"/>
<rect x="3" y="3" width="10" height="1" fill="#707070"/>
<rect x="3" y="3" width="1" height="10" fill="#707070"/>
<rect x="12" y="3" width="1" height="10" fill="#454545"/>
<rect x="3" y="12" width="10" height="1" fill="#454545"/>
<rect x="5" y="5" width="6" height="6" fill="#606060"/>
<rect x="6" y="6" width="4" height="4" fill="#585858"/>
<rect x="2" y="2" width="1" height="1" fill="#3a3a3a"/>
<rect x="13" y="2" width="1" height="1" fill="#3a3a3a"/>
<rect x="2" y="13" width="1" height="1" fill="#3a3a3a"/>
<rect x="13" y="13" width="1" height="1" fill="#3a3a3a"/>
</svg>