<svg xmlns="http://www.w3.org/2000/svg" viewBox="0 0 16 16" width="16" height="16" shape-rendering="crispEdges">
  <!-- Dungeon floor base -->
  <rect x="0" y="0" width="16" height="16" fill="#1a1815"/>
  <rect x="3" y="2" width="1" height="1" fill="#252220"/>
  <rect x="12" y="5" width="2" height="1" fill="#252220"/>
  <rect x="1" y="13" width="1" height="1" fill="#252220"/>
  
  <!-- Large stone chunks -->
  <rect x="2" y="6" width="3" height="2" fill="#5a5550"/>
  <rect x="2" y="7" width="3" height="1" fill="#4a4540"/>
  <rect x="3" y="6" width="2" height="1" fill="#6a6560"/>
  
  <rect x="7" y="8" width="4" height="3" fill="#555550"/>
  <rect x="7" y="9" width="4" height="2" fill="#454540"/>
  <rect x="8" y="8" width="2" height="1" fill="#656560"/>
  
  <rect x="10" y="4" width="2" height="2" fill="#5a5550"/>
  <rect x="10" y="5" width="2" height="1" fill="#4a4540"/>
  
  <!-- Medium stones -->
  <rect x="4" y="10" width="2" height="2" fill="#4a4540"/>
  <rect x="4" y="10" width="1" height="1" fill="#5a5550"/>
  
  <rect x="12" y="9" width="2" height="2" fill="#555550"/>
  <rect x="12" y="9" width="1" height="1" fill="#656560"/>
  
  <rect x="1" y="4" width="2" height="1" fill="#4a4540"/>
  <rect x="1" y="4" width="1" height="1" fill="#5a5550"/>
  
  <!-- Small debris -->
  <rect x="6" y="5" width="1" height="1" fill="#4a4540"/>
  <rect x="14" y="6" width="1" height="1" fill="#555550"/>
  <rect x="3" y="12" width="1" height="1" fill="#454540"/>
  <rect x="8" y="13" width="1" height="1" fill="#4a4540"/>
  <rect x="13" y="13" width="1" height="1" fill="#555550"/>
  <rect x="5" y="3" width="1" height="1" fill="#4a4540"/>
  <rect x="0" y="8" width="1" height="1" fill="#454540"/>
  <rect x="15" y="11" width="1" height="1" fill="#4a4540"/>
  
  <!-- Dust/gravel -->
  <rect x="6" y="11" width="1" height="1" fill="#353530"/>
  <rect x="11" y="7" width="1" height="1" fill="#353530"/>
  <rect x="2" y="9" width="1" height="1" fill="#302d28"/>
  <rect x="9" y="5" width="1" height="1" fill="#353530"/>
</svg>