<svg xmlns="http://www.w3.org/2000/svg" viewBox="0 0 16 16" width="16" height="16" shape-rendering="crispEdges">
  <rect width="16" height="16" fill="#1e1c18"/>
  
  <rect x="0" y="0" width="7" height="7" fill="#242220"/>
  <rect x="9" y="0" width="7" height="7" fill="#201e1a"/>
  <rect x="0" y="9" width="7" height="7" fill="#201e1a"/>
  <rect x="9" y="9" width="7" height="7" fill="#242220"/>
  
  <rect x="0" y="7" width="7" height="1" fill="#141210"/>
  <rect x="9" y="7" width="7" height="1" fill="#141210"/>
  <rect x="7" y="0" width="1" height="16" fill="#141210"/>
  
  <rect x="2" y="2" width="2" height="3" fill="#2a2826"/>
  <rect x="3" y="2" width="1" height="1" fill="#141210"/>
  
  <rect x="11" y="1" width="3" height="2" fill="#2a2826"/>
  <rect x="13" y="1" width="1" height="2" fill="#1a1816"/>
  
  <rect x="1" y="10" width="2" height="2" fill="#2a2826"/>
  
  <rect x="10" y="11" width="4" height="3" fill="#2a2826"/>
  <rect x="10" y="12" width="1" height="2" fill="#1a1816"/>
  <rect x="12" y="13" width="2" height="1" fill="#141210"/>
  
  <rect x="5" y="4" width="1" height="1" fill="#3a3836"/>
  <rect x="12" y="4" width="1" height="1" fill="#3a3836"/>
  <rect x="4" y="12" width="1" height="1" fill="#3a3836"/>
  <rect x="3" y="14" width="1" height="1" fill="#3a3836"/>
  
  <rect x="1" y="5" width="1" height="1" fill="#0f0d0b"/>
  <rect x="4" y="1" width="1" height="1" fill="#0f0d0b"/>
  <rect x="10" y="5" width="1" height="1" fill="#0f0d0b"/>
  <rect x="14" y="3" width="1" height="1" fill="#0f0d0b"/>
  <rect x="5" y="10" width="1" height="1" fill="#0f0d0b"/>
  <rect x="2" y="13" width="1" height="1" fill="#0f0d0b"/>
  
  <rect x="8" y="3" width="1" height="1" fill="#181614"/>
  <rect x="8" y="11" width="1" height="1" fill="#181614"/>
</svg>
