<svg xmlns="http://www.w3.org/2000/svg" viewBox="0 0 16 16" width="16" height="16" shape-rendering="crispEdges">
  <rect width="16" height="16" fill="#c9a86c"/>
  
  <rect x="0" y="0" width="1" height="1" fill="#d4b87a"/>
  <rect x="2" y="1" width="1" height="1" fill="#d4b87a"/>
  <rect x="5" y="0" width="1" height="1" fill="#dcc88a"/>
  <rect x="7" y="1" width="1" height="1" fill="#d4b87a"/>
  <rect x="10" y="0" width="1" height="1" fill="#d4b87a"/>
  <rect x="13" y="1" width="1" height="1" fill="#dcc88a"/>
  <rect x="15" y="0" width="1" height="1" fill="#d4b87a"/>
  
  <rect x="1" y="2" width="1" height="1" fill="#b89858"/>
  <rect x="4" y="3" width="1" height="1" fill="#b89858"/>
  <rect x="8" y="2" width="1" height="1" fill="#b89858"/>
  <rect x="11" y="3" width="1" height="1" fill="#b89858"/>
  <rect x="14" y="2" width="1" height="1" fill="#b89858"/>
  
  <rect x="3" y="4" width="1" height="1" fill="#d4b87a"/>
  <rect x="6" y="5" width="1" height="1" fill="#dcc88a"/>
  <rect x="9" y="4" width="1" height="1" fill="#d4b87a"/>
  <rect x="12" y="5" width="1" height="1" fill="#d4b87a"/>
  <rect x="0" y="5" width="1" height="1" fill="#dcc88a"/>
  
  <rect x="2" y="6" width="1" height="1" fill="#b89858"/>
  <rect x="5" y="7" width="1" height="1" fill="#b89858"/>
  <rect x="10" y="6" width="1" height="1" fill="#b89858"/>
  <rect x="13" y="7" width="1" height="1" fill="#b89858"/>
  <rect x="15" y="6" width="1" height="1" fill="#b89858"/>
  
  <rect x="1" y="8" width="1" height="1" fill="#d4b87a"/>
  <rect x="4" y="9" width="1" height="1" fill="#dcc88a"/>
  <rect x="7" y="8" width="1" height="1" fill="#d4b87a"/>
  <rect x="11" y="9" width="1" height="1" fill="#d4b87a"/>
  <rect x="14" y="8" width="1" height="1" fill="#dcc88a"/>
  
  <rect x="0" y="10" width="1" height="1" fill="#b89858"/>
  <rect x="3" y="11" width="1" height="1" fill="#b89858"/>
  <rect x="6" y="10" width="1" height="1" fill="#b89858"/>
  <rect x="9" y="11" width="1" height="1" fill="#b89858"/>
  <rect x="12" y="10" width="1" height="1" fill="#b89858"/>
  
  <rect x="2" y="12" width="1" height="1" fill="#d4b87a"/>
  <rect x="5" y="13" width="1" height="1" fill="#dcc88a"/>
  <rect x="8" y="12" width="1" height="1" fill="#d4b87a"/>
  <rect x="10" y="13" width="1" height="1" fill="#d4b87a"/>
  <rect x="13" y="12" width="1" height="1" fill="#dcc88a"/>
  <rect x="15" y="13" width="1" height="1" fill="#d4b87a"/>
  
  <rect x="1" y="14" width="1" height="1" fill="#b89858"/>
  <rect x="4" y="15" width="1" height="1" fill="#b89858"/>
  <rect x="7" y="14" width="1" height="1" fill="#b89858"/>
  <rect x="11" y="15" width="1" height="1" fill="#b89858"/>
  <rect x="14" y="14" width="1" height="1" fill="#b89858"/>
  
  <rect x="6" y="2" width="2" height="1" fill="#a88848"/>
  <rect x="2" y="9" width="1" height="1" fill="#a88848"/>
  <rect x="12" y="7" width="1" height="1" fill="#a88848"/>
  <rect x="9" y="14" width="1" height="1" fill="#a88848"/>
</svg>
