<svg xmlns="http://www.w3.org/2000/svg" viewBox="0 0 16 16" width="16" height="16" shape-rendering="crispEdges">
  <rect width="16" height="16" fill="#1a1815"/>
  
  <rect x="0" y="0" width="16" height="4" fill="#2a2622"/>
  <rect x="0" y="0" width="16" height="1" fill="#3a3632"/>
  <rect x="0" y="3" width="16" height="1" fill="#141210"/>
  
  <rect x="0" y="4" width="14" height="4" fill="#242220"/>
  <rect x="0" y="4" width="14" height="1" fill="#2e2a28"/>
  <rect x="0" y="7" width="14" height="1" fill="#121110"/>
  <rect x="14" y="4" width="2" height="4" fill="#0a0908"/>
  
  <rect x="0" y="8" width="11" height="4" fill="#1e1c18"/>
  <rect x="0" y="8" width="11" height="1" fill="#262420"/>
  <rect x="0" y="11" width="11" height="1" fill="#0f0d0b"/>
  <rect x="11" y="8" width="5" height="4" fill="#080706"/>
  
  <rect x="0" y="12" width="8" height="4" fill="#161412"/>
  <rect x="0" y="12" width="8" height="1" fill="#1e1c18"/>
  <rect x="0" y="15" width="8" height="1" fill="#0a0908"/>
  <rect x="8" y="12" width="8" height="4" fill="#050404"/>
  
  <rect x="2" y="1" width="1" height="1" fill="#4a4642"/>
  <rect x="6" y="1" width="1" height="1" fill="#4a4642"/>
  <rect x="12" y="1" width="1" height="1" fill="#4a4642"/>
  
  <rect x="1" y="5" width="1" height="1" fill="#3a3632"/>
  <rect x="8" y="5" width="1" height="1" fill="#3a3632"/>
  
  <rect x="3" y="9" width="1" height="1" fill="#2e2a28"/>
  <rect x="7" y="9" width="1" height="1" fill="#2e2a28"/>
  
  <rect x="2" y="13" width="1" height="1" fill="#242220"/>
  <rect x="5" y="13" width="1" height="1" fill="#242220"/>
</svg>
