<svg xmlns="http://www.w3.org/2000/svg" viewBox="0 0 16 16" width="16" height="16" shape-rendering="crispEdges">
<!-- Spike holes -->
<rect x="2" y="2" width="3" height="3" fill="#2a2020"/>
<rect x="3" y="3" width="1" height="1" fill="#3a1515"/>
<rect x="7" y="2" width="3" height="3" fill="#2a2020"/>
<rect x="8" y="3" width="1" height="1" fill="#3a1515"/>
<rect x="12" y="2" width="3" height="3" fill="#2a2020"/>
<rect x="13" y="3" width="1" height="1" fill="#3a1515"/>
<rect x="4" y="7" width="3" height="3" fill="#2a2020"/>
<rect x="5" y="8" width="1" height="1" fill="#3a1515"/>
<rect x="9" y="7" width="3" height="3" fill="#2a2020"/>
<rect x="10" y="8" width="1" height="1" fill="#3a1515"/>
<rect x="2" y="12" width="3" height="3" fill="#2a2020"/>
<rect x="3" y="13" width="1" height="1" fill="#3a1515"/>
<rect x="7" y="12" width="3" height="3" fill="#2a2020"/>
<rect x="8" y="13" width="1" height="1" fill="#3a1515"/>
<rect x="12" y="12" width="3" height="3" fill="#2a2020"/>
<rect x="13" y="13" width="1" height="1" fill="#3a1515"/>
</svg>