<svg xmlns="http://www.w3.org/2000/svg" viewBox="0 0 16 16" width="16" height="16" shape-rendering="crispEdges">
  <rect width="16" height="16" fill="#1a4466"/>
  
  <rect x="0" y="0" width="2" height="1" fill="#2a5577"/>
  <rect x="4" y="0" width="3" height="1" fill="#2a5577"/>
  <rect x="9" y="0" width="2" height="1" fill="#2a5577"/>
  <rect x="13" y="0" width="2" height="1" fill="#2a5577"/>
  
  <rect x="1" y="1" width="1" height="1" fill="#3a6688"/>
  <rect x="5" y="1" width="2" height="1" fill="#3a6688"/>
  <rect x="10" y="1" width="1" height="1" fill="#3a6688"/>
  <rect x="14" y="1" width="1" height="1" fill="#3a6688"/>
  
  <rect x="0" y="2" width="1" height="1" fill="#4a7799"/>
  <rect x="3" y="2" width="1" height="1" fill="#5588aa"/>
  <rect x="6" y="2" width="1" height="1" fill="#4a7799"/>
  <rect x="11" y="2" width="1" height="1" fill="#4a7799"/>
  <rect x="15" y="2" width="1" height="1" fill="#5588aa"/>
  
  <rect x="2" y="3" width="4" height="1" fill="#2a5577"/>
  <rect x="8" y="3" width="3" height="1" fill="#2a5577"/>
  <rect x="13" y="3" width="2" height="1" fill="#2a5577"/>
  
  <rect x="3" y="4" width="2" height="1" fill="#3a6688"/>
  <rect x="9" y="4" width="2" height="1" fill="#3a6688"/>
  <rect x="14" y="4" width="1" height="1" fill="#3a6688"/>
  
  <rect x="1" y="5" width="1" height="1" fill="#4a7799"/>
  <rect x="4" y="5" width="1" height="1" fill="#5588aa"/>
  <rect x="7" y="5" width="1" height="1" fill="#4a7799"/>
  <rect x="10" y="5" width="1" height="1" fill="#5588aa"/>
  <rect x="13" y="5" width="1" height="1" fill="#4a7799"/>
  
  <rect x="0" y="6" width="3" height="1" fill="#2a5577"/>
  <rect x="5" y="6" width="4" height="1" fill="#2a5577"/>
  <rect x="11" y="6" width="3" height="1" fill="#2a5577"/>
  
  <rect x="1" y="7" width="2" height="1" fill="#3a6688"/>
  <rect x="6" y="7" width="2" height="1" fill="#3a6688"/>
  <rect x="12" y="7" width="2" height="1" fill="#3a6688"/>
  
  <rect x="0" y="8" width="1" height="1" fill="#4a7799"/>
  <rect x="2" y="8" width="1" height="1" fill="#5588aa"/>
  <rect x="5" y="8" width="1" height="1" fill="#4a7799"/>
  <rect x="8" y="8" width="1" height="1" fill="#6699bb"/>
  <rect x="11" y="8" width="1" height="1" fill="#4a7799"/>
  <rect x="14" y="8" width="1" height="1" fill="#5588aa"/>
  
  <rect x="3" y="9" width="3" height="1" fill="#2a5577"/>
  <rect x="9" y="9" width="4" height="1" fill="#2a5577"/>
  <rect x="15" y="9" width="1" height="1" fill="#2a5577"/>
  
  <rect x="4" y="10" width="2" height="1" fill="#3a6688"/>
  <rect x="10" y="10" width="2" height="1" fill="#3a6688"/>
  <rect x="0" y="10" width="1" height="1" fill="#3a6688"/>
  
  <rect x="1" y="11" width="1" height="1" fill="#4a7799"/>
  <rect x="5" y="11" width="1" height="1" fill="#5588aa"/>
  <rect x="8" y="11" width="1" height="1" fill="#4a7799"/>
  <rect x="11" y="11" width="1" height="1" fill="#5588aa"/>
  <rect x="14" y="11" width="1" height="1" fill="#4a7799"/>
  
  <rect x="0" y="12" width="4" height="1" fill="#2a5577"/>
  <rect x="6" y="12" width="3" height="1" fill="#2a5577"/>
  <rect x="12" y="12" width="3" height="1" fill="#2a5577"/>
  
  <rect x="1" y="13" width="2" height="1" fill="#3a6688"/>
  <rect x="7" y="13" width="2" height="1" fill="#3a6688"/>
  <rect x="13" y="13" width="2" height="1" fill="#3a6688"/>
  
  <rect x="0" y="14" width="1" height="1" fill="#4a7799"/>
  <rect x="3" y="14" width="1" height="1" fill="#6699bb"/>
  <rect x="6" y="14" width="1" height="1" fill="#4a7799"/>
  <rect x="9" y="14" width="1" height="1" fill="#5588aa"/>
  <rect x="12" y="14" width="1" height="1" fill="#4a7799"/>
  <rect x="15" y="14" width="1" height="1" fill="#5588aa"/>
  
  <rect x="2" y="15" width="3" height="1" fill="#2a5577"/>
  <rect x="7" y="15" width="2" height="1" fill="#2a5577"/>
  <rect x="11" y="15" width="2" height="1" fill="#2a5577"/>
  
  <rect x="3" y="2" width="1" height="1" fill="#88bbdd"/>
  <rect x="8" y="8" width="1" height="1" fill="#99ccee"/>
  <rect x="3" y="14" width="1" height="1" fill="#88bbdd"/>
  
  <rect x="0" y="4" width="1" height="1" fill="#153855"/>
  <rect x="7" y="4" width="1" height="1" fill="#153855"/>
  <rect x="12" y="4" width="1" height="1" fill="#153855"/>
  <rect x="4" y="7" width="1" height="1" fill="#153855"/>
  <rect x="10" y="7" width="1" height="1" fill="#153855"/>
  <rect x="2" y="10" width="1" height="1" fill="#153855"/>
  <rect x="8" y="10" width="1" height="1" fill="#153855"/>
  <rect x="15" y="10" width="1" height="1" fill="#153855"/>
  <rect x="5" y="13" width="1" height="1" fill="#153855"/>
  <rect x="11" y="13" width="1" height="1" fill="#153855"/>
</svg>
