<svg xmlns="http://www.w3.org/2000/svg" viewBox="0 0 16 16" width="16" height="16" shape-rendering="crispEdges">
  <rect x="1" y="14" width="1" height="1" fill="#263f22"/>
  <rect x="3" y="15" width="1" height="1" fill="#2d4a28"/>
  <rect x="6" y="14" width="1" height="1" fill="#263f22"/>
  <rect x="9" y="15" width="1" height="1" fill="#2d4a28"/>
  <rect x="12" y="14" width="1" height="1" fill="#263f22"/>
  <rect x="14" y="15" width="1" height="1" fill="#2d4a28"/>
  
  <rect x="7" y="11" width="2" height="4" fill="#3a2515"/>
  <rect x="6" y="13" width="1" height="2" fill="#2a1a0f"/>
  <rect x="9" y="13" width="1" height="2" fill="#4a3520"/>
  <rect x="7" y="14" width="1" height="1" fill="#2a1a0f"/>
  <rect x="8" y="14" width="1" height="1" fill="#4a3520"/>
  
  <rect x="3" y="9" width="10" height="3" fill="#1a4020"/>
  
  <rect x="2" y="9" width="1" height="2" fill="#153318"/>
  <rect x="13" y="9" width="1" height="2" fill="#153318"/>
  <rect x="3" y="11" width="1" height="1" fill="#153318"/>
  <rect x="12" y="11" width="1" height="1" fill="#153318"/>
  
  <rect x="4" y="9" width="2" height="1" fill="#2a5525"/>
  <rect x="7" y="9" width="1" height="1" fill="#2a5525"/>
  <rect x="10" y="9" width="2" height="1" fill="#2a5525"/>
  
  <rect x="5" y="10" width="1" height="1" fill="#3a6a35"/>
  <rect x="8" y="10" width="1" height="1" fill="#3a6a35"/>
  <rect x="11" y="10" width="1" height="1" fill="#2a5525"/>
  
  <rect x="4" y="5" width="8" height="4" fill="#2a5525"/>
  
  <rect x="3" y="6" width="1" height="2" fill="#1a4020"/>
  <rect x="12" y="6" width="1" height="2" fill="#1a4020"/>
  <rect x="4" y="8" width="1" height="1" fill="#1a4020"/>
  <rect x="11" y="8" width="1" height="1" fill="#1a4020"/>
  
  <rect x="5" y="5" width="2" height="1" fill="#3a7a35"/>
  <rect x="8" y="5" width="2" height="1" fill="#3a7a35"/>
  <rect x="6" y="6" width="1" height="1" fill="#4a8a45"/>
  <rect x="9" y="6" width="1" height="1" fill="#4a8a45"/>
  <rect x="7" y="7" width="2" height="1" fill="#3a7a35"/>
  
  <rect x="10" y="6" width="1" height="1" fill="#1a4020"/>
  <rect x="11" y="7" width="1" height="1" fill="#1a4020"/>
  <rect x="5" y="7" width="1" height="1" fill="#1a4020"/>
  
  <rect x="5" y="2" width="6" height="3" fill="#3a7a35"/>
  
  <rect x="4" y="3" width="1" height="1" fill="#2a5525"/>
  <rect x="11" y="3" width="1" height="1" fill="#2a5525"/>
  <rect x="5" y="4" width="1" height="1" fill="#2a5525"/>
  <rect x="10" y="4" width="1" height="1" fill="#2a5525"/>
  
  <rect x="6" y="2" width="1" height="1" fill="#4a9a45"/>
  <rect x="8" y="2" width="2" height="1" fill="#4a9a45"/>
  <rect x="7" y="3" width="2" height="1" fill="#5aaa55"/>
  <rect x="6" y="3" width="1" height="1" fill="#4a9a45"/>
  <rect x="9" y="3" width="1" height="1" fill="#4a9a45"/>
  
  <rect x="6" y="0" width="4" height="2" fill="#4a9a45"/>
  
  <rect x="7" y="0" width="2" height="1" fill="#5aaa55"/>
  <rect x="6" y="1" width="1" height="1" fill="#3a7a35"/>
  <rect x="9" y="1" width="1" height="1" fill="#3a7a35"/>
  <rect x="8" y="1" width="1" height="1" fill="#6aba65"/>
  
  <rect x="5" y="1" width="1" height="1" fill="#2a5525"/>
  <rect x="10" y="1" width="1" height="1" fill="#2a5525"/>
  
  <rect x="0" y="13" width="1" height="1" fill="#234422"/>
  <rect x="2" y="12" width="1" height="1" fill="#1a3318"/>
  <rect x="4" y="13" width="1" height="1" fill="#234422"/>
  <rect x="11" y="13" width="1" height="1" fill="#1a3318"/>
  <rect x="13" y="12" width="1" height="1" fill="#234422"/>
  <rect x="15" y="13" width="1" height="1" fill="#1a3318"/>
</svg>
