<svg xmlns="http://www.w3.org/2000/svg" viewBox="0 0 16 16" width="16" height="16" shape-rendering="crispEdges">
  <rect x="7" y="0" width="2" height="1" fill="#eeeeff"/>
  <rect x="6" y="1" width="4" height="1" fill="#ddddef"/>
  <rect x="7" y="1" width="2" height="1" fill="#ffffff"/>
  <rect x="5" y="2" width="6" height="1" fill="#ccccdd"/>
  <rect x="7" y="2" width="1" height="1" fill="#eeeeff"/>
  
  <rect x="4" y="3" width="8" height="1" fill="#6a6a7a"/>
  <rect x="5" y="3" width="2" height="1" fill="#7a7a8a"/>
  <rect x="9" y="3" width="1" height="1" fill="#5a5a6a"/>
  
  <rect x="3" y="4" width="10" height="1" fill="#5a5a6a"/>
  <rect x="4" y="4" width="2" height="1" fill="#6a6a7a"/>
  <rect x="10" y="4" width="1" height="1" fill="#6a6a7a"/>
  
  <rect x="2" y="5" width="12" height="1" fill="#4a4a5a"/>
  <rect x="3" y="5" width="1" height="1" fill="#5a5a6a"/>
  <rect x="7" y="5" width="2" height="1" fill="#5a5a6a"/>
  <rect x="12" y="5" width="1" height="1" fill="#3a3a4a"/>
  
  <rect x="1" y="6" width="14" height="2" fill="#3a3a4a"/>
  <rect x="2" y="6" width="2" height="1" fill="#4a4a5a"/>
  <rect x="6" y="6" width="1" height="1" fill="#4a4a5a"/>
  <rect x="10" y="6" width="2" height="1" fill="#4a4a5a"/>
  <rect x="13" y="6" width="1" height="1" fill="#2a2a3a"/>
  <rect x="3" y="7" width="1" height="1" fill="#4a4a5a"/>
  <rect x="8" y="7" width="1" height="1" fill="#4a4a5a"/>
  <rect x="11" y="7" width="1" height="1" fill="#2a2a3a"/>
  
  <rect x="0" y="8" width="16" height="2" fill="#3a3a4a"/>
  <rect x="1" y="8" width="1" height="1" fill="#4a4a5a"/>
  <rect x="5" y="8" width="2" height="1" fill="#4a4a5a"/>
  <rect x="9" y="8" width="1" height="1" fill="#4a4a5a"/>
  <rect x="13" y="8" width="1" height="1" fill="#4a4a5a"/>
  <rect x="14" y="8" width="1" height="1" fill="#2a2a3a"/>
  <rect x="2" y="9" width="1" height="1" fill="#4a4a5a"/>
  <rect x="7" y="9" width="1" height="1" fill="#4a4a5a"/>
  <rect x="12" y="9" width="1" height="1" fill="#2a2a3a"/>
  
  <rect x="0" y="10" width="16" height="3" fill="#353545"/>
  <rect x="1" y="10" width="2" height="1" fill="#404050"/>
  <rect x="6" y="10" width="1" height="1" fill="#404050"/>
  <rect x="10" y="10" width="2" height="1" fill="#404050"/>
  <rect x="14" y="10" width="1" height="1" fill="#2a2a3a"/>
  <rect x="3" y="11" width="1" height="1" fill="#404050"/>
  <rect x="8" y="11" width="1" height="1" fill="#404050"/>
  <rect x="13" y="11" width="1" height="1" fill="#2a2a3a"/>
  <rect x="5" y="12" width="1" height="1" fill="#404050"/>
  <rect x="11" y="12" width="1" height="1" fill="#2a2a3a"/>
  
  <rect x="0" y="13" width="16" height="3" fill="#303040"/>
  <rect x="2" y="13" width="1" height="1" fill="#3a3a4a"/>
  <rect x="7" y="13" width="2" height="1" fill="#3a3a4a"/>
  <rect x="12" y="13" width="1" height="1" fill="#3a3a4a"/>
  <rect x="4" y="14" width="1" height="1" fill="#3a3a4a"/>
  <rect x="10" y="14" width="1" height="1" fill="#3a3a4a"/>
  <rect x="14" y="14" width="1" height="1" fill="#252535"/>
  <rect x="1" y="15" width="1" height="1" fill="#3a3a4a"/>
  <rect x="6" y="15" width="1" height="1" fill="#3a3a4a"/>
  <rect x="9" y="15" width="1" height="1" fill="#3a3a4a"/>
  <rect x="13" y="15" width="1" height="1" fill="#252535"/>
</svg>
