<svg xmlns="http://www.w3.org/2000/svg" viewBox="0 0 16 16" width="16" height="16" shape-rendering="crispEdges">
  <rect x="2" y="3" width="1" height="1" fill="#ff6688"/>
  <rect x="1" y="4" width="1" height="1" fill="#ff8899"/>
  <rect x="3" y="4" width="1" height="1" fill="#ff8899"/>
  <rect x="2" y="5" width="1" height="1" fill="#ff6688"/>
  <rect x="2" y="4" width="1" height="1" fill="#ffff88"/>
  
  <rect x="9" y="2" width="1" height="1" fill="#8866ff"/>
  <rect x="8" y="3" width="1" height="1" fill="#9988ff"/>
  <rect x="10" y="3" width="1" height="1" fill="#9988ff"/>
  <rect x="9" y="4" width="1" height="1" fill="#8866ff"/>
  <rect x="9" y="3" width="1" height="1" fill="#ffff88"/>
  
  <rect x="5" y="9" width="1" height="1" fill="#ff6688"/>
  <rect x="4" y="10" width="1" height="1" fill="#ff8899"/>
  <rect x="6" y="10" width="1" height="1" fill="#ff8899"/>
  <rect x="5" y="11" width="1" height="1" fill="#ff6688"/>
  <rect x="5" y="10" width="1" height="1" fill="#ffff88"/>
  
  <rect x="12" y="8" width="1" height="1" fill="#ffaa44"/>
  <rect x="11" y="9" width="1" height="1" fill="#ffcc66"/>
  <rect x="13" y="9" width="1" height="1" fill="#ffcc66"/>
  <rect x="12" y="10" width="1" height="1" fill="#ffaa44"/>
  <rect x="12" y="9" width="1" height="1" fill="#ffff88"/>
  
  <rect x="2" y="6" width="1" height="2" fill="#2d5a28"/>
  <rect x="9" y="5" width="1" height="2" fill="#2d5a28"/>
  <rect x="5" y="12" width="1" height="2" fill="#2d5a28"/>
  <rect x="12" y="11" width="1" height="2" fill="#2d5a28"/>
</svg>
