<svg xmlns="http://www.w3.org/2000/svg" viewBox="0 0 16 16" width="16" height="16" shape-rendering="crispEdges">
  <rect x="6" y="1" width="1" height="1" fill="#66aaff"/>
  <rect x="5" y="2" width="1" height="1" fill="#88ccff"/>
  <rect x="7" y="2" width="1" height="1" fill="#88ccff"/>
  <rect x="6" y="3" width="1" height="1" fill="#66aaff"/>
  <rect x="6" y="2" width="1" height="1" fill="#ffffff"/>
  
  <rect x="13" y="4" width="1" height="1" fill="#ff6688"/>
  <rect x="12" y="5" width="1" height="1" fill="#ff8899"/>
  <rect x="14" y="5" width="1" height="1" fill="#ff8899"/>
  <rect x="13" y="6" width="1" height="1" fill="#ff6688"/>
  <rect x="13" y="5" width="1" height="1" fill="#ffff88"/>
  
  <rect x="1" y="7" width="1" height="1" fill="#ffffff"/>
  <rect x="0" y="8" width="1" height="1" fill="#ffeeee"/>
  <rect x="2" y="8" width="1" height="1" fill="#ffeeee"/>
  <rect x="1" y="9" width="1" height="1" fill="#ffffff"/>
  <rect x="1" y="8" width="1" height="1" fill="#ffff88"/>
  
  <rect x="8" y="11" width="1" height="1" fill="#aa66ff"/>
  <rect x="7" y="12" width="1" height="1" fill="#cc88ff"/>
  <rect x="9" y="12" width="1" height="1" fill="#cc88ff"/>
  <rect x="8" y="13" width="1" height="1" fill="#aa66ff"/>
  <rect x="8" y="12" width="1" height="1" fill="#ffff88"/>
  
  <rect x="6" y="4" width="1" height="2" fill="#2d5a28"/>
  <rect x="13" y="7" width="1" height="2" fill="#2d5a28"/>
  <rect x="1" y="10" width="1" height="2" fill="#2d5a28"/>
  <rect x="8" y="14" width="1" height="1" fill="#2d5a28"/>
</svg>
