<svg xmlns="http://www.w3.org/2000/svg" viewBox="0 0 16 16" width="16" height="16" shape-rendering="crispEdges">
  <rect x="7" y="1" width="1" height="1" fill="#7a7a6a"/>
  <rect x="8" y="1" width="1" height="1" fill="#8a8a7a"/>
  <rect x="7" y="2" width="2" height="1" fill="#6a6a5a"/>
  
  <rect x="1" y="4" width="2" height="1" fill="#8a8a7a"/>
  <rect x="1" y="5" width="1" height="1" fill="#9a9a8a"/>
  <rect x="2" y="5" width="1" height="1" fill="#6a6a5a"/>
  
  <rect x="12" y="3" width="1" height="1" fill="#8a8a7a"/>
  <rect x="13" y="3" width="1" height="1" fill="#7a7a6a"/>
  <rect x="12" y="4" width="2" height="1" fill="#6a6a5a"/>
  
  <rect x="4" y="10" width="1" height="1" fill="#7a7a6a"/>
  <rect x="5" y="10" width="1" height="1" fill="#8a8a7a"/>
  <rect x="4" y="11" width="1" height="1" fill="#9a9a8a"/>
  <rect x="5" y="11" width="1" height="1" fill="#6a6a5a"/>
  
  <rect x="10" y="9" width="2" height="1" fill="#8a8a7a"/>
  <rect x="10" y="10" width="1" height="1" fill="#6a6a5a"/>
  
  <rect x="14" y="13" width="1" height="1" fill="#7a7a6a"/>
  <rect x="14" y="14" width="1" height="1" fill="#8a8a7a"/>
</svg>
