<svg xmlns="http://www.w3.org/2000/svg" viewBox="0 0 16 16" width="16" height="16" shape-rendering="crispEdges">
  <rect x="1" y="8" width="1" height="4" fill="#3d7a3d"/>
  <rect x="2" y="9" width="1" height="3" fill="#4a8a4a"/>
  <rect x="0" y="10" width="1" height="2" fill="#2d5a28"/>
  
  <rect x="5" y="7" width="1" height="5" fill="#4a8a4a"/>
  <rect x="6" y="8" width="1" height="4" fill="#3d7a3d"/>
  <rect x="4" y="9" width="1" height="3" fill="#2d5a28"/>
  
  <rect x="9" y="8" width="1" height="4" fill="#3d7a3d"/>
  <rect x="10" y="7" width="1" height="5" fill="#4a8a4a"/>
  <rect x="11" y="9" width="1" height="3" fill="#2d5a28"/>
  
  <rect x="13" y="9" width="1" height="3" fill="#4a8a4a"/>
  <rect x="14" y="8" width="1" height="4" fill="#3d7a3d"/>
  <rect x="15" y="10" width="1" height="2" fill="#2d5a28"/>
  
  <rect x="1" y="7" width="1" height="1" fill="#5a9a5a"/>
  <rect x="5" y="6" width="1" height="1" fill="#5a9a5a"/>
  <rect x="10" y="6" width="1" height="1" fill="#5a9a5a"/>
  <rect x="14" y="7" width="1" height="1" fill="#5a9a5a"/>
</svg>
