<svg xmlns="http://www.w3.org/2000/svg" viewBox="0 0 16 16" width="16" height="16" shape-rendering="crispEdges">
<rect width="16" height="16" fill="#1a1815"/>
<rect x="4" y="12" width="2" height="1" fill="#3a2a4a"/>
<rect x="9" y="13" width="3" height="1" fill="#3a2a4a"/>
<rect x="0" y="12" width="2" height="1" fill="#3a2a4a"/>
<rect x="14" y="12" width="2" height="1" fill="#3a2a4a"/>
<rect x="3" y="10" width="3" height="2" fill="#4a3a5a"/>
<rect x="8" y="11" width="4" height="2" fill="#4a3a5a"/>
<rect x="13" y="10" width="3" height="2" fill="#4a3a5a"/>
<rect x="0" y="11" width="2" height="1" fill="#4a3a5a"/>
<rect x="2" y="8" width="4" height="2" fill="#5a4a6a"/>
<rect x="7" y="9" width="3" height="2" fill="#5a4a6a"/>
<rect x="12" y="8" width="4" height="2" fill="#5a4a6a"/>
<rect x="3" y="6" width="3" height="2" fill="#6a5a7a"/>
<rect x="8" y="7" width="4" height="2" fill="#6a5a7a"/>
<rect x="13" y="6" width="2" height="2" fill="#6a5a7a"/>
<rect x="0" y="7" width="2" height="2" fill="#5a4a6a"/>
<rect x="4" y="4" width="2" height="2" fill="#5a4a6a"/>
<rect x="9" y="5" width="3" height="2" fill="#5a4a6a"/>
<rect x="14" y="4" width="2" height="2" fill="#5a4a6a"/>
<rect x="6" y="5" width="1" height="1" fill="#4a5a3a"/>
<rect x="12" y="9" width="1" height="1" fill="#4a5a3a"/>
<rect x="2" y="7" width="1" height="1" fill="#4a5a3a"/>
<rect x="5" y="3" width="2" height="1" fill="#4a3a5a"/>
<rect x="10" y="3" width="2" height="2" fill="#4a3a5a"/>
<rect x="0" y="4" width="2" height="2" fill="#4a3a5a"/>
<rect x="7" y="2" width="1" height="1" fill="#3a2a4a"/>
<rect x="12" y="1" width="2" height="2" fill="#3a2a4a"/>
<rect x="3" y="1" width="2" height="2" fill="#3a2a4a"/>
</svg>