<svg xmlns="http://www.w3.org/2000/svg" viewBox="0 0 16 16" width="16" height="16" shape-rendering="crispEdges">
  <rect x="5" y="0" width="6" height="1" fill="#c0a000"/>
  <rect x="4" y="0" width="1" height="2" fill="#a08000"/>
  <rect x="11" y="0" width="1" height="2" fill="#a08000"/>
  <rect x="5" y="1" width="6" height="4" fill="#404050"/>
  <rect x="4" y="2" width="1" height="3" fill="#303040"/>
  <rect x="11" y="2" width="1" height="3" fill="#303040"/>
  <rect x="6" y="2" width="1" height="1" fill="#8000a0"/>
  <rect x="9" y="2" width="1" height="1" fill="#8000a0"/>
  <rect x="4" y="5" width="8" height="6" fill="#202030"/>
  <rect x="3" y="6" width="1" height="4" fill="#181828"/>
  <rect x="12" y="6" width="1" height="4" fill="#181828"/>
  <rect x="2" y="4" width="1" height="6" fill="#605070"/>
  <rect x="13" y="4" width="1" height="6" fill="#605070"/>
  <rect x="1" y="5" width="1" height="4" fill="#504060"/>
  <rect x="14" y="5" width="1" height="4" fill="#504060"/>
  <rect x="5" y="11" width="2" height="3" fill="#101020"/>
  <rect x="9" y="11" width="2" height="3" fill="#101020"/>
  <rect x="4" y="13" width="3" height="2" fill="#080810"/>
  <rect x="9" y="13" width="3" height="2" fill="#080810"/>
  <rect x="7" y="6" width="2" height="3" fill="#a000c0"/>
</svg>
