<svg xmlns="http://www.w3.org/2000/svg" viewBox="0 0 16 16" width="16" height="16" shape-rendering="crispEdges">
  <rect x="6" y="1" width="4" height="3" fill="#0a0a10" opacity="0.9"/>
  <rect x="4" y="2" width="2" height="4" fill="#080810" opacity="0.8"/>
  <rect x="10" y="2" width="2" height="4" fill="#080810" opacity="0.8"/>
  <rect x="5" y="4" width="6" height="5" fill="#050508" opacity="0.95"/>
  <rect x="3" y="5" width="2" height="5" fill="#030305" opacity="0.7"/>
  <rect x="11" y="5" width="2" height="5" fill="#030305" opacity="0.7"/>
  <rect x="1" y="6" width="2" height="6" fill="#020204" opacity="0.5"/>
  <rect x="13" y="6" width="2" height="6" fill="#020204" opacity="0.5"/>
  <rect x="0" y="8" width="1" height="5" fill="#010102" opacity="0.3"/>
  <rect x="15" y="8" width="1" height="5" fill="#010102" opacity="0.3"/>
  <rect x="6" y="4" width="1" height="1" fill="#ff00ff"/>
  <rect x="9" y="4" width="1" height="1" fill="#ff00ff"/>
  <rect x="4" y="9" width="8" height="4" fill="#030305" opacity="0.85"/>
  <rect x="5" y="13" width="6" height="2" fill="#020204" opacity="0.6"/>
  <rect x="3" y="14" width="2" height="2" fill="#010102" opacity="0.4"/>
  <rect x="11" y="14" width="2" height="2" fill="#010102" opacity="0.4"/>
  <rect x="7" y="6" width="2" height="2" fill="#8000ff" opacity="0.8"/>
</svg>
