<svg xmlns="http://www.w3.org/2000/svg" viewBox="0 0 16 16" width="16" height="16" shape-rendering="crispEdges">
  <rect x="6" y="0" width="4" height="1" fill="#ffd700"/>
  <rect x="5" y="1" width="6" height="1" fill="#ffd700"/>
  <rect x="4" y="2" width="8" height="3" fill="#e8e0d8"/>
  <rect x="3" y="3" width="1" height="2" fill="#e8e0d8"/>
  <rect x="12" y="3" width="1" height="2" fill="#e8e0d8"/>
  <rect x="6" y="3" width="1" height="1" fill="#60a0ff"/>
  <rect x="9" y="3" width="1" height="1" fill="#60a0ff"/>
  <rect x="4" y="5" width="8" height="6" fill="#c0b8b0"/>
  <rect x="3" y="6" width="1" height="4" fill="#d0c8c0"/>
  <rect x="12" y="6" width="1" height="4" fill="#d0c8c0"/>
  <rect x="1" y="4" width="2" height="7" fill="#a0c8ff" opacity="0.6"/>
  <rect x="13" y="4" width="2" height="7" fill="#a0c8ff" opacity="0.6"/>
  <rect x="0" y="5" width="1" height="5" fill="#80b0ff" opacity="0.4"/>
  <rect x="15" y="5" width="1" height="5" fill="#80b0ff" opacity="0.4"/>
  <rect x="5" y="11" width="2" height="3" fill="#a09890"/>
  <rect x="9" y="11" width="2" height="3" fill="#a09890"/>
  <rect x="4" y="13" width="3" height="2" fill="#908880"/>
  <rect x="9" y="13" width="3" height="2" fill="#908880"/>
  <rect x="7" y="6" width="2" height="4" fill="#ffd700"/>
</svg>
