<svg xmlns="http://www.w3.org/2000/svg" viewBox="0 0 16 16" width="16" height="16" shape-rendering="crispEdges">
  <rect x="6" y="0" width="4" height="2" fill="#2a1820"/>
  <rect x="5" y="1" width="1" height="2" fill="#2a1820"/>
  <rect x="10" y="1" width="1" height="2" fill="#2a1820"/>
  <rect x="5" y="2" width="6" height="4" fill="#c0a080"/>
  <rect x="4" y="3" width="1" height="3" fill="#c0a080"/>
  <rect x="11" y="3" width="1" height="3" fill="#c0a080"/>
  <rect x="6" y="3" width="1" height="1" fill="#801820"/>
  <rect x="9" y="3" width="1" height="1" fill="#801820"/>
  <rect x="4" y="6" width="8" height="5" fill="#401020"/>
  <rect x="3" y="7" width="1" height="3" fill="#401020"/>
  <rect x="12" y="7" width="1" height="3" fill="#401020"/>
  <rect x="5" y="7" width="6" height="3" fill="#301018"/>
  <rect x="7" y="7" width="2" height="3" fill="#801020"/>
  <rect x="5" y="11" width="2" height="3" fill="#1a1018"/>
  <rect x="9" y="11" width="2" height="3" fill="#1a1018"/>
  <rect x="4" y="13" width="3" height="2" fill="#2a1820"/>
  <rect x="9" y="13" width="3" height="2" fill="#2a1820"/>
  <rect x="1" y="5" width="1" height="5" fill="#604030"/>
  <rect x="1" y="4" width="1" height="1" fill="#a08060"/>
</svg>
