<svg xmlns="http://www.w3.org/2000/svg" viewBox="0 0 16 16" width="16" height="16" shape-rendering="crispEdges">
  <rect x="5" y="1" width="6" height="3" fill="#e8e0d0"/>
  <rect x="4" y="2" width="1" height="3" fill="#e8e0d0"/>
  <rect x="11" y="2" width="1" height="3" fill="#e8e0d0"/>
  <rect x="5" y="4" width="6" height="3" fill="#d8d0c0"/>
  <rect x="6" y="4" width="1" height="1" fill="#1a1510"/>
  <rect x="9" y="4" width="1" height="1" fill="#1a1510"/>
  <rect x="6" y="6" width="4" height="1" fill="#1a1510"/>
  <rect x="5" y="7" width="6" height="4" fill="#c8c0b0"/>
  <rect x="4" y="8" width="1" height="2" fill="#c8c0b0"/>
  <rect x="11" y="8" width="1" height="2" fill="#c8c0b0"/>
  <rect x="6" y="8" width="1" height="3" fill="#b8b0a0"/>
  <rect x="9" y="8" width="1" height="3" fill="#b8b0a0"/>
  <rect x="5" y="11" width="2" height="3" fill="#d0c8b8"/>
  <rect x="9" y="11" width="2" height="3" fill="#d0c8b8"/>
  <rect x="4" y="13" width="3" height="2" fill="#c0b8a8"/>
  <rect x="9" y="13" width="3" height="2" fill="#c0b8a8"/>
  <rect x="13" y="3" width="1" height="8" fill="#808890"/>
  <rect x="12" y="4" width="1" height="1" fill="#6a6a70"/>
  <rect x="14" y="4" width="1" height="1" fill="#6a6a70"/>
</svg>
