<svg xmlns="http://www.w3.org/2000/svg" viewBox="0 0 16 16" width="16" height="16" shape-rendering="crispEdges">
  <!-- T-junction wall: connects N, S, W (open to east) -->
  <rect width="16" height="16" fill="#151820"/>
  
  <!-- Wall body - T shape -->
  <rect x="4" y="0" width="8" height="16" fill="#252830"/>
  <rect x="0" y="4" width="12" height="8" fill="#252830"/>
  
  <!-- Stone blocks -->
  <rect x="4" y="0" width="8" height="4" fill="#202430"/>
  <rect x="4" y="12" width="8" height="4" fill="#2a2e38"/>
  <rect x="0" y="4" width="4" height="8" fill="#2a2e38"/>
  <rect x="4" y="4" width="8" height="8" fill="#2a2e38"/>
  
  <!-- Mortar lines -->
  <rect x="4" y="3" width="8" height="1" fill="#141820"/>
  <rect x="4" y="11" width="8" height="1" fill="#141820"/>
  <rect x="7" y="0" width="1" height="16" fill="#141820"/>
  <rect x="0" y="7" width="12" height="1" fill="#141820"/>
  <rect x="3" y="4" width="1" height="8" fill="#141820"/>
  
  <!-- Right edge -->
  <rect x="11" y="4" width="1" height="8" fill="#141820"/>
  
  <!-- Highlights -->
  <rect x="9" y="1" width="1" height="1" fill="#303440"/>
  <rect x="5" y="13" width="1" height="1" fill="#303440"/>
  <rect x="1" y="9" width="1" height="1" fill="#303440"/>
</svg>
