<svg xmlns="http://www.w3.org/2000/svg" viewBox="0 0 16 16" width="16" height="16" shape-rendering="crispEdges">
  <rect width="16" height="16" fill="#2d4a28"/>
  
  <rect x="0" y="14" width="16" height="2" fill="#4a3a2a"/>
  <rect x="0" y="13" width="16" height="1" fill="#4a3a2a"/>
  <rect x="0" y="4" width="2" height="10" fill="#4a3a2a"/>
  <rect x="14" y="4" width="2" height="10" fill="#4a3a2a"/>
  <rect x="2" y="4" width="1" height="10" fill="#4a3a2a"/>
  <rect x="13" y="4" width="1" height="10" fill="#4a3a2a"/>
  <rect x="0" y="3" width="3" height="2" fill="#4a3a2a"/>
  <rect x="13" y="3" width="3" height="2" fill="#4a3a2a"/>
  
  <rect x="3" y="5" width="10" height="8" fill="#6a5a4a"/>
  <rect x="4" y="4" width="8" height="1" fill="#6a5a4a"/>
  <rect x="5" y="3" width="6" height="1" fill="#6a5a4a"/>
  
  <rect x="6" y="3" width="4" height="1" fill="#7a6a5a"/>
  <rect x="7" y="5" width="2" height="1" fill="#8a7a6a"/>
  <rect x="5" y="7" width="1" height="1" fill="#7a6a5a"/>
  <rect x="10" y="8" width="1" height="1" fill="#7a6a5a"/>
  <rect x="6" y="10" width="1" height="1" fill="#7a6a5a"/>
  
  <rect x="8" y="7" width="1" height="1" fill="#5a4a3a"/>
  <rect x="5" y="9" width="1" height="1" fill="#5a4a3a"/>
  <rect x="9" y="11" width="1" height="1" fill="#5a4a3a"/>
</svg>
