<svg xmlns="http://www.w3.org/2000/svg" viewBox="0 0 16 16" width="16" height="16" shape-rendering="crispEdges">
  <rect width="16" height="16" fill="#2d4a28"/>
  
  <rect x="0" y="0" width="2" height="16" fill="#4a3a2a"/>
  <rect x="2" y="0" width="1" height="16" fill="#4a3a2a"/>
  <rect x="2" y="0" width="10" height="2" fill="#4a3a2a"/>
  <rect x="2" y="14" width="10" height="2" fill="#4a3a2a"/>
  <rect x="2" y="2" width="10" height="1" fill="#4a3a2a"/>
  <rect x="2" y="13" width="10" height="1" fill="#4a3a2a"/>
  <rect x="11" y="0" width="2" height="3" fill="#4a3a2a"/>
  <rect x="11" y="13" width="2" height="3" fill="#4a3a2a"/>
  
  <rect x="3" y="3" width="8" height="10" fill="#6a5a4a"/>
  <rect x="11" y="4" width="1" height="8" fill="#6a5a4a"/>
  <rect x="12" y="5" width="1" height="6" fill="#6a5a4a"/>
  
  <rect x="12" y="6" width="1" height="4" fill="#7a6a5a"/>
  <rect x="10" y="7" width="1" height="2" fill="#8a7a6a"/>
  <rect x="8" y="5" width="1" height="1" fill="#7a6a5a"/>
  <rect x="7" y="10" width="1" height="1" fill="#7a6a5a"/>
  <rect x="5" y="6" width="1" height="1" fill="#7a6a5a"/>
  
  <rect x="8" y="8" width="1" height="1" fill="#5a4a3a"/>
  <rect x="6" y="5" width="1" height="1" fill="#5a4a3a"/>
  <rect x="4" y="9" width="1" height="1" fill="#5a4a3a"/>
</svg>
