<svg xmlns="http://www.w3.org/2000/svg" viewBox="0 0 16 16" width="16" height="16" shape-rendering="crispEdges">
  <rect width="16" height="16" fill="#3a3a3a"/>
  <rect x="0" y="0" width="7" height="3" fill="#4a4a4a"/>
  <rect x="8" y="0" width="8" height="3" fill="#454545"/>
  <rect x="1" y="0" width="2" height="1" fill="#555555"/>
  <rect x="9" y="0" width="2" height="1" fill="#505050"/>
  <rect x="7" y="0" width="1" height="4" fill="#2a2a2a"/>
  <rect x="0" y="3" width="16" height="1" fill="#2a2a2a"/>
  <rect x="0" y="4" width="3" height="3" fill="#454545"/>
  <rect x="4" y="4" width="7" height="3" fill="#4a4a4a"/>
  <rect x="12" y="4" width="4" height="3" fill="#454545"/>
  <rect x="3" y="4" width="1" height="4" fill="#2a2a2a"/>
  <rect x="11" y="4" width="1" height="4" fill="#2a2a2a"/>
  <rect x="0" y="7" width="16" height="1" fill="#2a2a2a"/>
  <rect x="0" y="8" width="7" height="3" fill="#4a4a4a"/>
  <rect x="8" y="8" width="8" height="3" fill="#454545"/>
  <rect x="7" y="8" width="1" height="4" fill="#2a2a2a"/>
  <rect x="0" y="11" width="16" height="1" fill="#2a2a2a"/>
  <rect x="0" y="12" width="3" height="4" fill="#454545"/>
  <rect x="4" y="12" width="7" height="4" fill="#4a4a4a"/>
  <rect x="12" y="12" width="4" height="4" fill="#454545"/>
  <rect x="3" y="12" width="1" height="4" fill="#2a2a2a"/>
  <rect x="11" y="12" width="1" height="4" fill="#2a2a2a"/>
  <rect x="0" y="15" width="16" height="1" fill="#2a2a2a"/>
  <rect x="7" y="9" width="2" height="1" fill="#3a2515"/>
  <rect x="7" y="10" width="2" height="3" fill="#4a3020"/>
  <rect x="6" y="10" width="1" height="1" fill="#2a2a2a"/>
  <rect x="9" y="10" width="1" height="1" fill="#2a2a2a"/>
  <rect x="7" y="5" width="2" height="4" fill="#ff8800"/>
  <rect x="7" y="4" width="2" height="1" fill="#ffaa00"/>
  <rect x="8" y="3" width="1" height="1" fill="#ffcc00"/>
  <rect x="8" y="2" width="1" height="1" fill="#ffdd44"/>
  <rect x="6" y="6" width="1" height="2" fill="#ff6600"/>
  <rect x="9" y="6" width="1" height="2" fill="#ff6600"/>
  <rect x="5" y="5" width="1" height="2" fill="#cc4400"/>
  <rect x="9" y="4" width="1" height="2" fill="#cc4400"/>
</svg>
