<svg xmlns="http://www.w3.org/2000/svg" viewBox="0 0 16 16" width="16" height="16" shape-rendering="crispEdges">
  <rect width="16" height="16" fill="#2d4a28"/>
  
  <rect x="12" y="0" width="4" height="10" fill="#3a2515"/>
  <rect x="14" y="0" width="2" height="10" fill="#4a3520"/>
  <rect x="13" y="2" width="1" height="1" fill="#2a1a0f"/>
  <rect x="13" y="5" width="1" height="1" fill="#2a1a0f"/>
  <rect x="15" y="3" width="1" height="1" fill="#5a4530"/>
  <rect x="15" y="7" width="1" height="1" fill="#5a4530"/>
  
  <rect x="10" y="8" width="2" height="2" fill="#1a4020"/>
  <rect x="10" y="8" width="1" height="1" fill="#2a5525"/>
  
  <rect x="8" y="10" width="8" height="6" fill="#1a4020"/>
  <rect x="9" y="10" width="2" height="1" fill="#2a5525"/>
  <rect x="13" y="11" width="2" height="1" fill="#2a5525"/>
  <rect x="10" y="13" width="1" height="1" fill="#2a5525"/>
  <rect x="14" y="14" width="1" height="1" fill="#2a5525"/>
  
  <rect x="3" y="4" width="1" height="2" fill="#1a3318"/>
  <rect x="1" y="8" width="1" height="1" fill="#234422"/>
  <rect x="5" y="10" width="1" height="2" fill="#1a3318"/>
  <rect x="2" y="14" width="1" height="1" fill="#234422"/>
  <rect x="6" y="15" width="1" height="1" fill="#234422"/>
</svg>
