<svg xmlns="http://www.w3.org/2000/svg" viewBox="0 0 16 16" width="16" height="16" shape-rendering="crispEdges">
  <rect width="16" height="16" fill="#2d4a28"/>
  
  <rect x="0" y="6" width="8" height="10" fill="#1a4020"/>
  <rect x="0" y="4" width="6" height="2" fill="#1a4020"/>
  <rect x="0" y="2" width="4" height="2" fill="#2a5525"/>
  <rect x="0" y="0" width="2" height="2" fill="#2a5525"/>
  
  <rect x="5" y="5" width="2" height="1" fill="#2a5525"/>
  <rect x="2" y="3" width="1" height="1" fill="#3a7a35"/>
  <rect x="0" y="1" width="1" height="1" fill="#3a7a35"/>
  
  <rect x="4" y="7" width="2" height="2" fill="#2a5525"/>
  <rect x="0" y="6" width="2" height="2" fill="#2a5525"/>
  <rect x="4" y="7" width="1" height="1" fill="#3a7a35"/>
  <rect x="0" y="6" width="1" height="1" fill="#3a7a35"/>
  
  <rect x="4" y="10" width="3" height="2" fill="#2a5525"/>
  <rect x="0" y="9" width="3" height="2" fill="#2a5525"/>
  <rect x="5" y="10" width="1" height="1" fill="#4a9a45"/>
  <rect x="1" y="9" width="1" height="1" fill="#3a7a35"/>
  
  <rect x="0" y="12" width="4" height="4" fill="#3a2515"/>
  <rect x="0" y="12" width="2" height="4" fill="#4a3520"/>
  <rect x="2" y="13" width="1" height="1" fill="#2a1a0f"/>
  
  <rect x="4" y="13" width="4" height="3" fill="#1a4020"/>
  <rect x="5" y="13" width="2" height="1" fill="#2a5525"/>
  
  <rect x="12" y="10" width="1" height="2" fill="#1a3318"/>
  <rect x="14" y="14" width="1" height="1" fill="#234422"/>
  <rect x="10" y="13" width="1" height="2" fill="#1a3318"/>
</svg>
