<svg xmlns="http://www.w3.org/2000/svg" viewBox="0 0 16 16" width="16" height="16" shape-rendering="crispEdges">
  <rect width="16" height="16" fill="#4a4a5a"/>
  <rect x="0" y="0" width="16" height="2" fill="#5a5a6a"/>
  <rect x="0" y="0" width="3" height="1" fill="#6a6a7a"/>
  <rect x="6" y="0" width="4" height="1" fill="#6a6a7a"/>
  <rect x="13" y="0" width="3" height="1" fill="#6a6a7a"/>
  <rect x="2" y="3" width="1" height="1" fill="#3a3a4a"/>
  <rect x="7" y="3" width="2" height="1" fill="#3a3a4a"/>
  <rect x="13" y="3" width="1" height="1" fill="#3a3a4a"/>
  <rect x="4" y="5" width="3" height="4" fill="#5a5a6a"/>
  <rect x="9" y="5" width="3" height="4" fill="#5a5a6a"/>
  <rect x="5" y="5" width="1" height="1" fill="#6a6a7a"/>
  <rect x="10" y="5" width="1" height="1" fill="#6a6a7a"/>
  <rect x="5" y="6" width="1" height="2" fill="#2a2a3a"/>
  <rect x="10" y="6" width="1" height="2" fill="#2a2a3a"/>
  <rect x="0" y="10" width="16" height="1" fill="#5a5a6a"/>
  <rect x="2" y="11" width="1" height="1" fill="#3a3a4a"/>
  <rect x="7" y="11" width="2" height="1" fill="#3a3a4a"/>
  <rect x="13" y="11" width="1" height="1" fill="#3a3a4a"/>
  <rect x="0" y="13" width="16" height="3" fill="#5a5a6a"/>
  <rect x="1" y="13" width="2" height="1" fill="#6a6a7a"/>
  <rect x="6" y="13" width="4" height="1" fill="#6a6a7a"/>
  <rect x="13" y="13" width="2" height="1" fill="#6a6a7a"/>
  <rect x="4" y="14" width="1" height="1" fill="#6a6a7a"/>
  <rect x="11" y="14" width="1" height="1" fill="#6a6a7a"/>
</svg>
