<svg xmlns="http://www.w3.org/2000/svg" viewBox="0 0 16 16" width="16" height="16" shape-rendering="crispEdges">
  <rect width="16" height="16" fill="#2d4a28"/>
  <rect x="0" y="0" width="16" height="10" fill="#4a4a5a"/>
  <rect x="0" y="0" width="16" height="2" fill="#3a3a4a"/>
  <rect x="2" y="0" width="1" height="1" fill="#4a4a5a"/>
  <rect x="7" y="0" width="2" height="1" fill="#4a4a5a"/>
  <rect x="13" y="0" width="1" height="1" fill="#4a4a5a"/>
  <rect x="4" y="2" width="3" height="5" fill="#2a2a3a"/>
  <rect x="9" y="2" width="3" height="5" fill="#2a2a3a"/>
  <rect x="3" y="4" width="1" height="1" fill="#5a5a6a"/>
  <rect x="8" y="4" width="1" height="1" fill="#5a5a6a"/>
  <rect x="12" y="4" width="1" height="1" fill="#5a5a6a"/>
  <rect x="0" y="8" width="16" height="2" fill="#5a5a6a"/>
  <rect x="2" y="8" width="3" height="1" fill="#6a6a7a"/>
  <rect x="6" y="8" width="4" height="2" fill="#3a2515"/>
  <rect x="7" y="8" width="2" height="2" fill="#5a4535"/>
  <rect x="11" y="8" width="3" height="1" fill="#6a6a7a"/>
  <rect x="3" y="12" width="1" height="2" fill="#1a3318"/>
  <rect x="7" y="10" width="2" height="6" fill="#6a5a4a"/>
  <rect x="1" y="14" width="1" height="1" fill="#234422"/>
  <rect x="5" y="13" width="1" height="1" fill="#234422"/>
  <rect x="10" y="13" width="1" height="1" fill="#234422"/>
  <rect x="14" y="14" width="1" height="1" fill="#234422"/>
</svg>
