<svg xmlns="http://www.w3.org/2000/svg" viewBox="0 0 16 16" width="16" height="16" shape-rendering="crispEdges">
  <rect width="16" height="16" fill="#2d4a28"/>
  <rect x="6" y="0" width="10" height="16" fill="#4a4a5a"/>
  <rect x="6" y="0" width="2" height="16" fill="#3a3a4a"/>
  <rect x="6" y="2" width="2" height="1" fill="#4a4a5a"/>
  <rect x="6" y="6" width="2" height="1" fill="#4a4a5a"/>
  <rect x="6" y="10" width="2" height="1" fill="#4a4a5a"/>
  <rect x="6" y="14" width="2" height="1" fill="#4a4a5a"/>
  <rect x="10" y="2" width="2" height="5" fill="#2a2a3a"/>
  <rect x="14" y="2" width="2" height="5" fill="#2a2a3a"/>
  <rect x="10" y="9" width="2" height="5" fill="#2a2a3a"/>
  <rect x="14" y="9" width="2" height="5" fill="#2a2a3a"/>
  <rect x="9" y="4" width="1" height="1" fill="#5a5a6a"/>
  <rect x="13" y="4" width="1" height="1" fill="#5a5a6a"/>
  <rect x="9" y="11" width="1" height="1" fill="#5a5a6a"/>
  <rect x="13" y="11" width="1" height="1" fill="#5a5a6a"/>
  <rect x="3" y="2" width="1" height="2" fill="#1a3318"/>
  <rect x="1" y="6" width="1" height="1" fill="#234422"/>
  <rect x="4" y="10" width="1" height="1" fill="#234422"/>
  <rect x="2" y="14" width="1" height="1" fill="#234422"/>
</svg>
