<svg xmlns="http://www.w3.org/2000/svg" viewBox="0 0 16 16" width="16" height="16" shape-rendering="crispEdges">
  <rect width="16" height="16" fill="#2d4a28"/>
  <rect x="0" y="0" width="10" height="16" fill="#4a4a5a"/>
  <rect x="8" y="0" width="2" height="3" fill="#5a5a6a"/>
  <rect x="8" y="4" width="2" height="2" fill="#5a5a6a"/>
  <rect x="8" y="7" width="2" height="3" fill="#5a5a6a"/>
  <rect x="8" y="11" width="2" height="2" fill="#5a5a6a"/>
  <rect x="8" y="14" width="2" height="2" fill="#5a5a6a"/>
  <rect x="0" y="0" width="8" height="2" fill="#5a5a6a"/>
  <rect x="1" y="0" width="2" height="1" fill="#6a6a7a"/>
  <rect x="5" y="0" width="2" height="1" fill="#6a6a7a"/>
  <rect x="1" y="3" width="1" height="1" fill="#3a3a4a"/>
  <rect x="5" y="3" width="1" height="1" fill="#3a3a4a"/>
  <rect x="0" y="6" width="2" height="3" fill="#2a2a3a"/>
  <rect x="4" y="6" width="2" height="3" fill="#2a2a3a"/>
  <rect x="0" y="11" width="3" height="2" fill="#3a3a4a"/>
  <rect x="4" y="11" width="3" height="2" fill="#3a3a4a"/>
  <rect x="1" y="11" width="1" height="1" fill="#4a4a5a"/>
  <rect x="5" y="11" width="1" height="1" fill="#4a4a5a"/>
  <rect x="12" y="12" width="1" height="2" fill="#1a3318"/>
  <rect x="14" y="14" width="1" height="1" fill="#234422"/>
  <rect x="11" y="15" width="1" height="1" fill="#234422"/>
</svg>
