<svg xmlns="http://www.w3.org/2000/svg" viewBox="0 0 16 16" width="16" height="16" shape-rendering="crispEdges">
  <rect width="16" height="16" fill="#2d4a28"/>
  <rect x="0" y="0" width="8" height="8" fill="#353545"/>
  <rect x="0" y="0" width="4" height="4" fill="#3a3a4a"/>
  <rect x="4" y="2" width="2" height="1" fill="#3a3a4a"/>
  <rect x="0" y="0" width="2" height="1" fill="#404050"/>
  <rect x="6" y="4" width="1" height="1" fill="#3a3a4a"/>
  <rect x="4" y="6" width="1" height="1" fill="#2a2a3a"/>
  <rect x="1" y="5" width="1" height="1" fill="#2a2a3a"/>
  <rect x="9" y="6" width="1" height="2" fill="#1a3318"/>
  <rect x="12" y="4" width="1" height="1" fill="#234422"/>
  <rect x="14" y="7" width="1" height="1" fill="#1a3318"/>
  <rect x="11" y="10" width="1" height="1" fill="#3d5a38"/>
  <rect x="7" y="12" width="1" height="1" fill="#234422"/>
  <rect x="13" y="14" width="1" height="1" fill="#234422"/>
  <rect x="3" y="11" width="1" height="1" fill="#234422"/>
</svg>
