<svg xmlns="http://www.w3.org/2000/svg" viewBox="0 0 16 16" width="16" height="16" shape-rendering="crispEdges">
  <rect width="16" height="16" fill="#353545"/>
  <rect x="0" y="0" width="16" height="2" fill="#3a3a4a"/>
  <rect x="2" y="0" width="3" height="1" fill="#404050"/>
  <rect x="7" y="0" width="2" height="1" fill="#404050"/>
  <rect x="11" y="0" width="3" height="1" fill="#404050"/>
  <rect x="0" y="4" width="1" height="1" fill="#3a3a4a"/>
  <rect x="4" y="3" width="1" height="1" fill="#3a3a4a"/>
  <rect x="8" y="4" width="1" height="1" fill="#3a3a4a"/>
  <rect x="12" y="3" width="1" height="1" fill="#3a3a4a"/>
  <rect x="15" y="4" width="1" height="1" fill="#3a3a4a"/>
  <rect x="2" y="6" width="1" height="1" fill="#2a2a3a"/>
  <rect x="6" y="5" width="1" height="1" fill="#3a3a4a"/>
  <rect x="10" y="6" width="1" height="1" fill="#2a2a3a"/>
  <rect x="14" y="5" width="1" height="1" fill="#3a3a4a"/>
  <rect x="0" y="8" width="1" height="1" fill="#2a2a3a"/>
  <rect x="5" y="9" width="1" height="1" fill="#2a2a3a"/>
  <rect x="9" y="8" width="1" height="1" fill="#2a2a3a"/>
  <rect x="13" y="9" width="1" height="1" fill="#2a2a3a"/>
  <rect x="3" y="11" width="1" height="1" fill="#303040"/>
  <rect x="7" y="10" width="2" height="1" fill="#303040"/>
  <rect x="12" y="11" width="1" height="1" fill="#303040"/>
  <rect x="1" y="13" width="1" height="1" fill="#303040"/>
  <rect x="6" y="14" width="1" height="1" fill="#303040"/>
  <rect x="10" y="13" width="1" height="1" fill="#303040"/>
  <rect x="14" y="14" width="1" height="1" fill="#303040"/>
  <rect x="0" y="14" width="16" height="2" fill="#303040"/>
  <rect x="4" y="15" width="1" height="1" fill="#353545"/>
  <rect x="11" y="15" width="1" height="1" fill="#353545"/>
</svg>
