<svg xmlns="http://www.w3.org/2000/svg" viewBox="0 0 16 16" width="16" height="16" shape-rendering="crispEdges">
  <rect width="16" height="16" fill="#4a4a5a"/>
  <rect x="0" y="0" width="16" height="4" fill="#6a6a7a"/>
  <rect x="2" y="0" width="12" height="2" fill="#8a8a9a"/>
  <rect x="4" y="0" width="8" height="1" fill="#ccccdd"/>
  <rect x="5" y="0" width="6" height="1" fill="#eeeeff"/>
  <rect x="6" y="0" width="4" height="1" fill="#ffffff"/>
  <rect x="3" y="1" width="2" height="1" fill="#ccccdd"/>
  <rect x="11" y="1" width="2" height="1" fill="#ccccdd"/>
  <rect x="1" y="2" width="2" height="1" fill="#7a7a8a"/>
  <rect x="13" y="2" width="2" height="1" fill="#7a7a8a"/>
  <rect x="0" y="4" width="2" height="2" fill="#5a5a6a"/>
  <rect x="14" y="4" width="2" height="2" fill="#5a5a6a"/>
  <rect x="4" y="5" width="1" height="1" fill="#5a5a6a"/>
  <rect x="8" y="4" width="1" height="1" fill="#5a5a6a"/>
  <rect x="11" y="5" width="1" height="1" fill="#5a5a6a"/>
  <rect x="3" y="8" width="1" height="1" fill="#3a3a4a"/>
  <rect x="7" y="7" width="2" height="1" fill="#5a5a6a"/>
  <rect x="12" y="8" width="1" height="1" fill="#3a3a4a"/>
  <rect x="5" y="10" width="1" height="1" fill="#3a3a4a"/>
  <rect x="10" y="10" width="1" height="1" fill="#3a3a4a"/>
  <rect x="2" y="12" width="1" height="1" fill="#3a3a4a"/>
  <rect x="8" y="13" width="1" height="1" fill="#3a3a4a"/>
  <rect x="13" y="12" width="1" height="1" fill="#3a3a4a"/>
  <rect x="0" y="14" width="16" height="2" fill="#3a3a4a"/>
  <rect x="4" y="14" width="1" height="1" fill="#4a4a5a"/>
  <rect x="11" y="14" width="1" height="1" fill="#4a4a5a"/>
</svg>
