<svg xmlns="http://www.w3.org/2000/svg" viewBox="0 0 16 16" width="16" height="16" shape-rendering="crispEdges">
  <rect width="16" height="16" fill="#2d4a28"/>
  
  <rect x="0" y="0" width="16" height="8" fill="#1a4466"/>
  <rect x="0" y="8" width="8" height="8" fill="#1a4466"/>
  
  <rect x="1" y="1" width="3" height="1" fill="#2a5577"/>
  <rect x="6" y="0" width="4" height="1" fill="#2a5577"/>
  <rect x="12" y="1" width="3" height="1" fill="#2a5577"/>
  <rect x="2" y="2" width="2" height="1" fill="#3a6688"/>
  <rect x="7" y="2" width="2" height="1" fill="#3a6688"/>
  <rect x="13" y="2" width="2" height="1" fill="#3a6688"/>
  
  <rect x="9" y="6" width="3" height="1" fill="#2a5577"/>
  <rect x="14" y="6" width="2" height="1" fill="#2a5577"/>
  
  <rect x="8" y="7" width="1" height="1" fill="#3a6688"/>
  <rect x="11" y="7" width="2" height="1" fill="#4a7799"/>
  <rect x="15" y="7" width="1" height="1" fill="#3a6688"/>
  
  <rect x="7" y="7" width="1" height="1" fill="#c9a86c"/>
  <rect x="9" y="8" width="1" height="1" fill="#c9a86c"/>
  <rect x="14" y="8" width="1" height="1" fill="#c9a86c"/>
  
  <rect x="1" y="9" width="1" height="1" fill="#2a5577"/>
  <rect x="3" y="10" width="2" height="1" fill="#2a5577"/>
  <rect x="1" y="12" width="1" height="1" fill="#3a6688"/>
  <rect x="5" y="13" width="2" height="1" fill="#4a7799"/>
  
  <rect x="10" y="10" width="1" height="2" fill="#1a3318"/>
  <rect x="13" y="12" width="1" height="2" fill="#234422"/>
  <rect x="14" y="14" width="1" height="1" fill="#3d5a38"/>
</svg>
