<svg xmlns="http://www.w3.org/2000/svg" viewBox="0 0 16 16" width="16" height="16" shape-rendering="crispEdges">
<rect width="16" height="16" fill="#1a1815"/>
<rect x="1" y="1" width="2" height="2" fill="#222018"/>
<rect x="5" y="2" width="1" height="1" fill="#222018"/>
<rect x="13" y="3" width="2" height="2" fill="#222018"/>
<rect x="2" y="12" width="2" height="2" fill="#222018"/>
<rect x="10" y="13" width="1" height="1" fill="#222018"/>
<rect x="14" y="11" width="1" height="2" fill="#222018"/>
<rect x="0" y="7" width="1" height="1" fill="#222018"/>
<rect x="4" y="4" width="8" height="8" fill="#333333"/>
<rect x="5" y="3" width="6" height="1" fill="#444444"/>
<rect x="5" y="12" width="6" height="1" fill="#444444"/>
<rect x="3" y="5" width="1" height="6" fill="#444444"/>
<rect x="12" y="5" width="1" height="6" fill="#444444"/>
<rect x="4" y="4" width="1" height="1" fill="#555555"/>
<rect x="11" y="4" width="1" height="1" fill="#555555"/>
<rect x="4" y="11" width="1" height="1" fill="#555555"/>
<rect x="11" y="11" width="1" height="1" fill="#555555"/>
<rect x="5" y="5" width="6" height="6" fill="#882200"/>
<rect x="6" y="6" width="4" height="4" fill="#aa3300"/>
<rect x="6" y="5" width="4" height="4" fill="#ff6600"/>
<rect x="7" y="4" width="3" height="4" fill="#ff8800"/>
<rect x="8" y="5" width="2" height="2" fill="#ffaa00"/>
<rect x="9" y="3" width="1" height="2" fill="#ffcc00"/>
<rect x="6" y="4" width="1" height="2" fill="#cc4400"/>
<rect x="10" y="5" width="1" height="1" fill="#cc4400"/>
<rect x="9" y="2" width="1" height="1" fill="#ffdd44"/>
<rect x="7" y="4" width="1" height="1" fill="#ffcc00"/>
</svg>