<svg xmlns="http://www.w3.org/2000/svg" viewBox="0 0 16 16" width="16" height="16" shape-rendering="crispEdges">
  <rect width="16" height="16" fill="#4a1508"/>
  
  <rect x="0" y="0" width="4" height="2" fill="#6a2510"/>
  <rect x="6" y="0" width="5" height="2" fill="#7a3515"/>
  <rect x="13" y="0" width="3" height="2" fill="#6a2510"/>
  
  <rect x="1" y="0" width="2" height="1" fill="#8a4520"/>
  <rect x="7" y="0" width="3" height="1" fill="#9a5525"/>
  <rect x="14" y="0" width="1" height="1" fill="#8a4520"/>
  
  <rect x="2" y="2" width="5" height="2" fill="#8a4520"/>
  <rect x="9" y="2" width="4" height="2" fill="#7a3515"/>
  
  <rect x="3" y="2" width="2" height="1" fill="#aa6530"/>
  <rect x="10" y="2" width="2" height="1" fill="#9a5525"/>
  
  <rect x="0" y="4" width="3" height="2" fill="#7a3515"/>
  <rect x="5" y="4" width="6" height="2" fill="#9a5525"/>
  <rect x="13" y="4" width="3" height="2" fill="#7a3515"/>
  
  <rect x="6" y="4" width="3" height="1" fill="#bb7540"/>
  <rect x="7" y="5" width="2" height="1" fill="#cc8550"/>
  
  <rect x="1" y="6" width="4" height="2" fill="#8a4520"/>
  <rect x="7" y="6" width="5" height="2" fill="#aa6530"/>
  <rect x="14" y="6" width="2" height="2" fill="#6a2510"/>
  
  <rect x="2" y="6" width="2" height="1" fill="#aa6530"/>
  <rect x="8" y="6" width="3" height="1" fill="#cc8550"/>
  <rect x="9" y="7" width="1" height="1" fill="#dd9560"/>
  
  <rect x="0" y="8" width="5" height="2" fill="#7a3515"/>
  <rect x="6" y="8" width="4" height="2" fill="#9a5525"/>
  <rect x="11" y="8" width="5" height="2" fill="#8a4520"/>
  
  <rect x="1" y="8" width="2" height="1" fill="#9a5525"/>
  <rect x="7" y="8" width="2" height="1" fill="#bb7540"/>
  <rect x="12" y="8" width="2" height="1" fill="#aa6530"/>
  
  <rect x="2" y="10" width="6" height="2" fill="#aa6530"/>
  <rect x="10" y="10" width="4" height="2" fill="#9a5525"/>
  
  <rect x="3" y="10" width="3" height="1" fill="#cc8550"/>
  <rect x="4" y="11" width="2" height="1" fill="#dd9560"/>
  <rect x="11" y="10" width="2" height="1" fill="#bb7540"/>
  
  <rect x="0" y="12" width="4" height="2" fill="#7a3515"/>
  <rect x="5" y="12" width="5" height="2" fill="#8a4520"/>
  <rect x="12" y="12" width="4" height="2" fill="#7a3515"/>
  
  <rect x="6" y="12" width="2" height="1" fill="#aa6530"/>
  <rect x="13" y="12" width="1" height="1" fill="#9a5525"/>
  
  <rect x="1" y="14" width="5" height="2" fill="#8a4520"/>
  <rect x="8" y="14" width="6" height="2" fill="#9a5525"/>
  
  <rect x="2" y="14" width="2" height="1" fill="#bb7540"/>
  <rect x="9" y="14" width="3" height="1" fill="#bb7540"/>
  <rect x="10" y="15" width="1" height="1" fill="#cc8550"/>
  
  <!-- Hotspots - frame 2 (different positions, bright again) -->
  <rect x="7" y="5" width="1" height="1" fill="#ffdd99"/>
  <rect x="2" y="8" width="1" height="1" fill="#ffcc88"/>
  <rect x="11" y="10" width="1" height="1" fill="#ffaa66"/>
  <rect x="3" y="14" width="1" height="1" fill="#ffcc88"/>
</svg>
