<svg xmlns="http://www.w3.org/2000/svg" viewBox="0 0 16 16" width="16" height="16" shape-rendering="crispEdges">
  <!-- Hair -->
  <rect x="5" y="1" width="6" height="2" fill="#3a3028"/>
  <rect x="4" y="2" width="1" height="2" fill="#3a3028"/>
  <rect x="11" y="2" width="1" height="2" fill="#3a3028"/>
  
  <!-- Face -->
  <rect x="5" y="3" width="6" height="4" fill="#d0a878"/>
  <rect x="4" y="4" width="1" height="2" fill="#d0a878"/>
  <rect x="11" y="4" width="1" height="2" fill="#d0a878"/>
  
  <!-- Eyes -->
  <rect x="6" y="4" width="1" height="1" fill="#2a2520"/>
  <rect x="9" y="4" width="1" height="1" fill="#2a2520"/>
  
  <!-- Cloak & tunic -->
  <rect x="4" y="7" width="8" height="4" fill="#5a5550"/>
  <rect x="3" y="8" width="1" height="2" fill="#5a5550"/>
  <rect x="12" y="8" width="1" height="2" fill="#5a5550"/>
  
  <!-- Leather vest -->
  <rect x="5" y="7" width="6" height="3" fill="#6a5a48"/>
  <rect x="6" y="8" width="4" height="2" fill="#7a6a58"/>
  
  <!-- Belt -->
  <rect x="5" y="10" width="6" height="1" fill="#4a3a28"/>
  
  <!-- Legs -->
  <rect x="5" y="11" width="2" height="3" fill="#4a4540"/>
  <rect x="9" y="11" width="2" height="3" fill="#4a4540"/>
  
  <!-- Boots -->
  <rect x="4" y="13" width="3" height="2" fill="#3a3028"/>
  <rect x="9" y="13" width="3" height="2" fill="#3a3028"/>
  
  <!-- Sword -->
  <rect x="1" y="4" width="1" height="7" fill="#808890"/>
  <rect x="1" y="3" width="1" height="1" fill="#a0a8b0"/>
  <rect x="0" y="10" width="3" height="1" fill="#5a5550"/>
  <rect x="1" y="11" width="1" height="2" fill="#4a3a28"/>
</svg>
